<svg width="434" height="568" viewBox="0 0 434 568" fill="none" xmlns="http://www.w3.org/2000/svg">
<path d="M216.624 267.662C100.914 267.662 6.35376 322.011 0 390.523V405.248C0.374818 409.491 1.12524 413.712 2.18026 417.838C18.1712 480.278 108.089 528.109 216.624 528.109C325.183 528.109 415.102 480.278 431.093 417.838C432.311 413.126 433.085 408.343 433.414 403.466V392.306C428.561 322.949 333.366 267.662 216.624 267.662Z" fill="#E9DB58"/>
<path d="M433.414 392.305V403.465C433.554 401.613 433.625 399.76 433.625 397.885C433.625 396.009 433.554 394.157 433.414 392.305Z" fill="#E0C944"/>
<path d="M433.414 403.465C433.085 408.343 432.312 413.125 431.093 417.838C415.102 480.277 325.184 528.108 216.624 528.108C108.089 528.108 18.1712 480.277 2.18026 417.838C1.12524 413.711 0.374818 409.491 0 405.247V430.405V445.13C6.35376 513.617 100.915 567.991 216.624 567.991C333.366 567.991 428.56 512.68 433.413 443.347C433.553 441.495 433.624 439.643 433.624 437.767C433.624 435.891 433.553 434.038 433.413 432.186V403.465H433.414Z" fill="#E0C944"/>
<path d="M39.3669 354.374C39.3906 355.593 39.6952 356.766 40.2815 357.891C39.6715 359.087 39.3669 360.329 39.3669 361.596V354.374Z" fill="#BF9A00"/>
<path d="M88.6996 382.792H88.6759L86.0735 380.47C86.2842 380.4 86.4957 380.306 86.7063 380.212C89.0042 379.157 90.9501 377.914 92.4738 376.578L96.2725 376.039V377.211C96.1786 378.243 95.9442 379.251 95.4755 380.213C95.4755 380.213 95.4755 380.213 95.4755 380.237C94.8426 381.502 93.9044 382.699 92.6853 383.8L88.6996 382.792Z" fill="#C9A200"/>
<path d="M342.323 116.483C331.398 116.225 320.119 123.025 312.311 129.004C309.803 126.87 309.381 124.619 309.381 124.619L309.005 124.596C315.758 112.99 328.513 109.003 338.619 109.379C339.861 111.301 341.315 113.81 342.323 116.483Z" fill="#7286D5"/>
<path d="M96.2957 347.481V347.809L96.1316 348.63C96.2255 348.231 96.2721 347.833 96.2957 347.481Z" fill="#FFCE00"/>
<path d="M164.62 455.875C165.113 454.609 165.371 453.296 165.371 451.936V459.838C165.371 460.752 165.253 461.667 165.019 462.558C163.987 461.737 162.885 461.057 161.69 460.494C163.002 459.064 164.01 457.516 164.62 455.875Z" fill="#DBB100"/>
<path d="M282.112 134.537C281.808 132.661 281.385 130.691 280.799 128.675L285.019 128.956C282.979 130.973 282.299 133.059 282.112 134.537Z" fill="#7286D5"/>
<path d="M342.324 116.483C341.315 113.81 339.862 111.301 338.619 109.379C345.348 109.637 350.905 111.794 352.757 114.936C353.601 116.343 353.859 118.007 353.695 119.789C350.084 117.539 346.239 116.553 342.347 116.483H342.324Z" fill="#7286D5"/>
<path d="M119.532 468.63C123.658 469.755 128.277 470.365 133.131 470.365C139.579 470.365 145.581 469.286 150.599 467.388C155.265 465.699 159.086 463.308 161.69 460.494C162.885 461.057 163.988 461.737 165.019 462.558C162.721 471.444 149.333 478.267 133.131 478.267C130.669 478.267 128.277 478.103 125.979 477.798C115.076 476.391 106.261 471.819 102.626 465.864V465.84C103.4 464.433 104.736 463.238 106.425 462.253C109.684 465.019 114.209 467.224 119.532 468.63Z" fill="#DBB100"/>
<path d="M96.2723 350.107V353.46C96.1784 352.428 95.9441 351.42 95.4753 350.482V350.459C95.7563 349.943 95.9441 349.404 96.0616 348.888C96.0853 348.841 96.0853 348.794 96.1082 348.747C96.1082 348.701 96.1319 348.677 96.1319 348.63L96.296 347.809V349.989C96.296 350.036 96.2723 350.059 96.2723 350.107Z" fill="#D6AD00"/>
<path d="M262.885 102.532C282.299 100.328 290.693 115.427 293.905 124.384C289.708 125.533 286.965 127.128 285.206 128.792C285.182 128.792 285.182 128.792 285.182 128.792C283.541 128.628 282.017 128.394 280.634 128.112C278.922 122.531 275.944 116.881 270.692 113.481C269.215 112.52 267.738 111.84 266.284 111.371C259.25 109.097 252.685 112.004 248.606 114.63C248.302 109.051 251.373 103.845 262.885 102.532Z" fill="#7286D5"/>
<path d="M80.5166 374.937C76.7179 375.922 72.404 376.485 67.8785 376.485C60.6568 376.485 54.0916 375.078 49.0509 372.756C46.7301 371.725 44.7606 370.458 43.1895 369.051C42.252 368.184 41.4314 367.27 40.8451 366.331C40.6336 366.003 40.4229 365.675 40.2825 365.347C40.2825 365.323 40.2825 365.323 40.2825 365.323C39.6962 364.174 39.3916 363.001 39.3679 361.782C39.3679 361.712 39.3679 361.665 39.3679 361.594C39.3679 360.329 39.6725 359.086 40.2825 357.89C40.9153 359.226 41.9238 360.468 43.1666 361.594C43.6827 362.064 44.2453 362.509 44.8552 362.931C46.0744 363.846 47.5042 364.62 49.0524 365.347C54.0931 367.644 60.6584 369.051 67.8801 369.051C72.101 369.051 76.1096 368.559 79.7205 367.692L80.1189 371.256L80.5166 374.937Z" fill="#BF9A00"/>
<path d="M134.889 449.474C132.287 447.223 129.637 444.996 126.941 442.792C129.098 442.206 131.63 442.018 133.576 441.995C134.772 441.971 136.132 442.112 136.367 442.487C136.578 442.816 137.257 442.98 137.914 442.862C138.571 442.745 138.946 442.37 138.758 442.041C138.242 441.151 136.437 440.682 133.67 440.728C130.552 440.752 127.832 441.127 125.652 441.76C124.315 440.681 123.025 439.602 121.689 438.571C121.337 438.266 120.563 438.22 119.977 438.407L119.18 435.288C123.401 434.14 128.137 433.483 133.131 433.483C138.548 433.483 143.682 434.257 148.161 435.593L165.3 450.834C165.347 451.185 165.37 451.56 165.37 451.935C165.37 453.295 165.112 454.608 164.62 455.874C164.01 457.516 163.002 459.063 161.689 460.494C159.462 459.368 157.023 458.618 154.608 458.032C152.38 457.493 150.154 457.07 147.902 456.742C149.45 455.289 149.918 453.835 149.192 452.569C147.668 449.919 141.618 448.888 136.718 449.286C136.109 449.333 135.499 449.404 134.889 449.474Z" fill="#FFCE00"/>
<path d="M401.339 363.214C398.22 365.019 394.329 366.496 389.944 367.481C385.794 365.183 381.503 362.979 377.048 360.892C377.189 360.892 377.306 360.892 377.447 360.892C382.933 360.892 388.092 360.165 392.593 358.9L401.339 363.214Z" fill="#B7B3AC"/>
<path d="M162.229 223.096C158.125 221.126 153.694 218.43 150.529 215.007L162.158 216.46L162.229 223.096Z" fill="#DC5057"/>
<path d="M96.2724 368.324C96.1785 367.34 95.9678 366.379 95.522 365.464L95.4983 365.37L95.4746 365.3C95.5922 365.066 95.709 364.831 95.7792 364.573C95.7792 364.549 95.8029 364.527 95.8029 364.503C95.8968 364.269 95.967 364.058 96.0135 363.823C96.0609 363.729 96.0838 363.635 96.0838 363.541C96.1777 363.143 96.2479 362.744 96.2708 362.392V368.324H96.2724Z" fill="#D6AD00"/>
<path d="M172.803 227.199C172.803 227.199 171.49 226.824 169.427 226.097L184.667 219.274L198.149 213.248L199.063 213.295L218.782 214.421C211.326 221.244 201.525 226.613 201.525 226.613L172.803 227.199Z" fill="#DC5057"/>
<path d="M132.357 343.002L131.138 371.279L96.273 376.039V369.779V369.685V368.325V362.393C96.2501 362.745 96.1791 363.143 96.086 363.542C96.1799 363.143 96.2501 362.745 96.273 362.323V362.275V360.939V355.1C96.2028 355.874 95.9921 356.812 95.5699 357.656C95.9921 356.765 96.1799 355.851 96.273 354.913V353.46V350.107C96.273 350.06 96.2967 350.037 96.2967 349.989V347.809C96.3432 347.457 96.3669 347.082 96.3669 346.73C96.3669 342.697 93.2721 339.016 88.2314 336.32C84.8785 334.538 80.6577 333.178 75.8987 332.475L65.5339 236.976L135.71 241.197L136.765 241.243L132.357 343.002Z" fill="#9DC6EA"/>
<path d="M96.2724 369.685L95.522 365.464C95.9678 366.379 96.1785 367.34 96.2724 368.325V369.685Z" fill="#D6AD00"/>
<path d="M147.598 199.062C156.18 180.751 175.945 208.816 176.883 210.153C176.906 210.177 176.906 210.2 176.906 210.2L176.812 212.052L162.064 211.232V210.411L149.473 213.811C146.261 209.801 144.878 204.877 147.598 199.062Z" fill="#DC5057"/>
<path d="M282.136 136.647C282.136 136.647 281.948 135.826 282.112 134.583C282.23 135.357 282.346 136.131 282.417 136.857C282.323 136.811 282.23 136.717 282.136 136.647Z" fill="#5A68BD"/>
<path d="M309.381 124.619C309.381 124.619 309.803 126.869 312.312 129.003C311.585 129.589 310.858 130.152 310.178 130.691L308.935 130.597C309.709 127.479 309.381 124.619 309.381 124.619Z" fill="#7286D5"/>
<path d="M282.792 141.852C282.769 140.563 282.675 138.968 282.44 137.163C282.558 137.163 282.675 137.186 282.816 137.186C282.816 137.209 282.84 137.186 282.84 137.186C283.941 138.054 285.114 138.664 286.309 139.109C285.254 139.813 284.058 140.75 282.792 141.852Z" fill="#7286D5"/>
<path d="M346.778 348.888C346.731 348.794 346.684 348.7 346.637 348.63L355.524 341.807L355.594 340.635L380.589 352.967C379.651 353.154 378.713 353.296 377.776 353.366C374.986 353.577 371.515 353.015 370.436 351.537C370.225 351.232 369.522 351.092 368.912 351.232C368.279 351.373 367.951 351.748 368.185 352.053C369.616 353.999 373.836 354.796 377.47 354.609C377.635 354.609 377.776 354.609 377.939 354.585C379.416 354.467 380.87 354.233 382.347 353.835L392.593 358.899C388.092 360.165 382.933 360.891 377.447 360.891C377.306 360.891 377.189 360.891 377.048 360.891C370.647 360.845 364.716 359.813 359.744 358.101C356.039 356.812 352.874 355.123 350.483 353.177C351.35 352.451 352.335 351.747 353.39 351.137C351.209 350.365 349.006 349.591 346.778 348.888Z" fill="#CBC6BD"/>
<path d="M310.178 130.691C309.592 131.184 309.005 131.676 308.466 132.122C308.654 131.606 308.818 131.114 308.935 130.598L310.178 130.691Z" fill="#7286D5"/>
<path d="M355.523 341.806L346.636 348.629C346.566 348.488 346.496 348.348 346.449 348.23C345.839 346.964 345.535 345.628 345.535 344.268C345.535 343.493 345.629 342.72 345.839 341.97H345.863L355.593 340.633L355.523 341.806Z" fill="#CBC6BD"/>
<path d="M345.863 341.971C346.168 340.751 346.754 339.555 347.575 338.454L355.594 340.634L345.863 341.971Z" fill="#CBC6BD"/>
<path d="M88.6756 382.792L83.4937 381.479C84.3845 381.174 85.2518 380.846 86.0724 380.47L88.6756 382.792Z" fill="#C9A200"/>
<path d="M223.8 194.959C229.873 200.023 226.543 206.612 220.823 212.45L221.432 193.341C222.205 193.74 223.003 194.28 223.8 194.959Z" fill="#DC5057"/>
<path d="M78.4999 347.293C78.2892 346.918 77.9136 346.613 77.4212 346.356L77.2571 344.949C78.7343 345.371 79.9068 346.05 80.4221 346.942C81.1962 348.301 80.2817 349.919 77.9602 351.444L77.7723 349.779V349.756C78.5236 349.028 78.9923 348.161 78.4999 347.293Z" fill="#CEA600"/>
<path d="M282.792 141.876C281.269 143.213 279.627 144.83 277.986 146.542H277.962L263.941 145.511L264.128 141.103C271.021 138.242 277.539 136.741 277.539 136.741V136.671C279.087 136.859 280.728 137.047 282.44 137.164C282.674 138.969 282.768 140.563 282.791 141.853V141.876H282.792Z" fill="#7286D5"/>
<path d="M176.883 210.153C176.578 208.605 169.685 175.076 186.871 177.375C204.456 179.719 199.181 211.373 199.181 211.373L199.063 213.295L198.149 213.248L176.813 212.052L176.906 210.2C176.906 210.2 176.906 210.176 176.883 210.153Z" fill="#DC5057"/>
<path d="M311.326 231.888C311.326 235.123 313.952 237.749 317.189 237.749C320.424 237.749 323.05 235.123 323.05 231.888C323.05 228.652 320.424 226.026 317.189 226.026C313.952 226.026 311.326 228.652 311.326 231.888ZM303.12 177.562C294.703 177.562 287.879 184.385 287.879 192.802C287.879 201.22 294.703 208.043 303.12 208.043C311.537 208.043 318.36 201.22 318.36 192.802C318.36 184.385 311.537 177.562 303.12 177.562ZM247.247 158.804C240.33 158.804 234.75 164.408 234.75 171.325C234.75 178.218 240.33 183.822 247.247 183.822C254.164 183.822 259.744 178.218 259.744 171.325C259.744 164.408 254.163 158.804 247.247 158.804ZM281.244 169.754C284.058 169.754 286.332 167.48 286.332 164.666C286.332 161.876 284.058 159.601 281.244 159.601C278.43 159.601 276.156 161.876 276.156 164.666C276.157 167.48 278.431 169.754 281.244 169.754ZM307.035 173.669C307.035 173.669 310.716 161.501 308.724 148.769L339.369 150.996L327.247 332.92L326.473 344.62L282.886 350.552L282.98 349.872C285.325 349.309 287.529 348.114 289.357 346.284C294.703 340.938 294.703 332.287 289.357 326.941C288.396 325.98 287.341 325.205 286.215 324.596L290.295 292.756C293.273 295.499 297.235 297.141 301.572 297.141C310.834 297.141 318.36 289.614 318.36 280.353C318.36 271.068 310.834 263.541 301.572 263.541C298.759 263.541 296.109 264.221 293.788 265.441L299.627 219.789L299.674 218.946L277.728 217.727C277.681 211.513 272.64 206.495 266.403 206.495C264.597 206.495 262.862 206.918 261.338 207.691C258.009 209.356 255.594 212.615 255.149 216.46L231.045 215.1L220.752 214.514L220.822 212.474V212.451C226.543 206.612 229.873 200.024 223.8 194.96C223.003 194.28 222.206 193.741 221.432 193.342L221.549 189.661V189.614L223.355 179.837C224.762 172.076 228.349 166.073 232.897 163.846C230.529 160.938 228.442 157.468 226.707 153.553C225.324 150.388 224.129 146.941 223.237 143.284L224.855 142.674L256.414 144.972C253.742 146.613 251.444 148.489 249.99 150.599L263.261 147.082V163.495C263.261 163.495 270.764 153.999 277.962 146.543H277.986L292.523 147.598C294.164 152.826 295.923 160.33 295.712 168.184L300.401 153.741L307.035 173.669ZM309.381 322.932C313.484 322.932 316.813 319.626 316.813 315.523C316.813 311.419 313.484 308.09 309.381 308.09C305.277 308.09 301.948 311.419 301.948 315.523C301.948 319.626 305.277 322.932 309.381 322.932Z" fill="#9B88D4"/>
<path d="M79.719 367.692C76.1081 368.559 72.0987 369.051 67.8787 369.051C60.6569 369.051 54.0917 367.644 49.051 365.346C47.5036 364.62 46.0737 363.846 44.8538 362.931C44.2438 362.509 43.6812 362.064 43.1651 361.594C41.9223 360.469 40.9146 359.226 40.281 357.89C39.6947 356.764 39.3901 355.592 39.3665 354.373C39.3665 354.302 39.3665 354.255 39.3665 354.185V346.729C39.3665 348.018 39.671 349.261 40.281 350.457V350.481C40.9139 351.794 41.9223 353.013 43.1651 354.186C44.7362 355.569 46.7058 356.835 49.0265 357.89C49.4952 358.102 49.9876 358.335 50.48 358.523C55.31 360.469 61.3126 361.594 67.8779 361.594C71.7934 361.594 75.5447 361.196 78.9449 360.422L79.719 367.692Z" fill="#D6AD00"/>
<path d="M309.38 124.619C309.38 124.619 309.709 127.479 308.935 130.598L295.499 129.683C295.265 128.604 294.773 126.706 293.906 124.384C294.351 124.267 294.82 124.15 295.312 124.032L308.982 124.595H309.006L309.38 124.619Z" fill="#5A68BD"/>
<path d="M347.575 338.453C349.404 335.875 352.428 333.623 356.274 331.865L355.593 340.634L347.575 338.453Z" fill="#CBC6BD"/>
<path d="M199.063 213.294L199.181 211.372C199.181 211.372 205.816 193.693 215.594 192.192L218.338 207.175L220.916 193.083C221.08 193.153 221.245 193.224 221.432 193.341L220.823 212.451V212.474C220.167 213.131 219.51 213.764 218.807 214.42H218.783L199.063 213.294Z" fill="#DC5057"/>
<path d="M95.4753 365.324V365.3L95.4992 365.371L95.4753 365.347C95.4753 365.324 95.4753 365.324 95.4753 365.324Z" fill="#D6AD00"/>
<path d="M96.2723 360.939V362.275L95.499 357.961C95.9677 358.923 96.2021 359.907 96.2723 360.939Z" fill="#BF9A00"/>
<path d="M86.7061 387.645C81.6883 389.966 75.1001 391.373 67.8784 391.373C60.6566 391.373 54.0914 389.966 49.0507 387.645C46.73 386.613 44.7367 385.347 43.1656 383.917C41.9228 382.768 40.9151 381.525 40.2815 380.236C40.2815 380.212 40.2815 380.212 40.2815 380.212C39.6952 379.087 39.3906 377.891 39.3669 376.695C39.3669 376.625 39.3669 376.578 39.3669 376.507V369.239C39.3906 370.458 39.6952 371.631 40.2815 372.756V372.78C40.9143 374.117 41.9228 375.359 43.1885 376.507C44.7359 377.891 46.7055 379.134 49.027 380.212C54.0448 382.51 60.6329 383.917 67.8784 383.917C73.6466 383.917 79.0156 383.026 83.4937 381.479L88.6757 382.792H88.6993L91.2078 385.019C89.8948 386.003 88.3947 386.871 86.7061 387.645Z" fill="#C9A200"/>
<path d="M96.0616 348.888C95.9441 349.404 95.7563 349.943 95.4753 350.459C95.7334 349.943 95.9212 349.427 96.0616 348.888Z" fill="#FFCE00"/>
<path d="M394.047 358.454C393.578 358.618 393.086 358.758 392.594 358.9L382.347 353.835C384.012 353.39 385.7 352.78 387.341 352.006C388.678 353.295 390.038 354.562 391.327 355.851C391.561 356.063 391.984 356.18 392.452 356.156C392.616 356.156 392.781 356.109 392.945 356.062C393.039 356.038 393.132 355.992 393.226 355.944L394.047 358.454Z" fill="#CBC6BD"/>
<path d="M70.6215 345.323C73.0361 345.136 75.8263 345.487 77.4211 346.355L77.773 349.756V349.779C77.3043 350.248 76.718 350.67 76.1782 350.998C74.185 349.123 72.1452 347.246 70.0352 345.394C70.223 345.371 70.4344 345.347 70.6215 345.323Z" fill="#FFCE00"/>
<path d="M96.2723 355.101V360.939C96.2021 359.908 95.9677 358.923 95.499 357.962L95.4753 357.916V357.868C95.5227 357.798 95.5456 357.728 95.5693 357.657C95.9914 356.813 96.2021 355.874 96.2723 355.101Z" fill="#BF9A00"/>
<path d="M282.839 137.186C282.839 137.186 282.815 137.209 282.815 137.186C282.674 137.093 282.533 136.999 282.416 136.882V136.858C282.346 136.131 282.229 135.357 282.112 134.584C282.112 134.56 282.112 134.56 282.112 134.537C282.299 133.06 282.979 130.973 285.019 128.957L295.5 129.684C295.64 130.317 295.71 130.669 295.71 130.669L285.159 137.327C284.362 137.303 283.589 137.257 282.839 137.186Z" fill="#5A68BD"/>
<path d="M351.186 186.167C353.788 186.167 355.875 180.563 355.875 173.67C355.875 166.754 353.788 161.15 351.186 161.15C348.607 161.15 346.496 166.754 346.496 173.67C346.497 180.563 348.607 186.167 351.186 186.167ZM360.565 206.096C360.565 202.439 359.534 199.461 358.22 199.461C356.931 199.461 355.876 202.439 355.876 206.096C355.876 209.754 356.931 212.732 358.22 212.732C359.534 212.732 360.565 209.754 360.565 206.096ZM339.463 285.042C339.463 293.459 342.276 300.282 345.724 300.282C349.17 300.282 351.984 293.459 351.984 285.042C351.984 276.624 349.17 269.801 345.724 269.801C342.276 269.801 339.463 276.624 339.463 285.042ZM346.121 244.784C347.622 244.784 348.841 241.103 348.841 236.577C348.841 232.052 347.622 228.371 346.121 228.371C344.598 228.371 343.378 232.052 343.378 236.577C343.378 241.103 344.598 244.784 346.121 244.784ZM333.999 328.793C333.999 330.974 334.211 333.061 334.609 334.937L327.247 332.92L339.369 150.996H339.463L371.35 135.686L356.274 331.865C352.429 333.623 349.404 335.874 347.575 338.454L346.566 338.172C347.504 335.569 348.066 332.31 348.066 328.793C348.066 320.376 344.924 313.553 341.033 313.553C337.142 313.553 333.999 320.376 333.999 328.793Z" fill="#856FC5"/>
<path d="M86.7061 365.347C84.6189 366.308 82.2745 367.105 79.7187 367.692L78.9446 360.423C81.805 359.814 84.4311 358.946 86.7053 357.891C89.0497 356.836 91.0192 355.57 92.5667 354.186C93.153 353.624 93.6919 353.061 94.1614 352.475C94.3721 352.217 94.5599 351.959 94.724 351.702C94.9584 351.373 95.1691 351.021 95.3569 350.669C95.4042 350.599 95.4271 350.529 95.4745 350.482L96.2714 354.914C96.1775 355.851 95.9905 356.766 95.5683 357.657C95.5447 357.727 95.5218 357.797 95.4745 357.868V357.916C94.8179 359.252 93.8331 360.472 92.5667 361.597C90.9972 363.002 89.0276 364.269 86.7061 365.347Z" fill="#D6AD00"/>
<path d="M289.896 140C295.335 140.68 300.635 138.757 302.651 137.889C303.143 137.983 304.198 138.218 305.652 138.452C305.652 138.452 305.652 138.452 305.675 138.476C307.222 141.781 308.184 145.299 308.723 148.769L292.521 147.596C291.162 143.212 289.849 140.445 289.849 140.445L289.896 140Z" fill="#7286D5"/>
<path d="M308.724 148.769C310.717 161.501 307.035 173.67 307.035 173.67L300.4 153.74L295.71 168.183C295.921 160.329 294.163 152.825 292.521 147.597L308.724 148.769Z" fill="#7286D5"/>
<path d="M162.064 211.232L162.158 216.46L150.529 215.007H150.505C150.154 214.608 149.802 214.21 149.474 213.811L162.064 210.411V211.232Z" fill="#DC5057"/>
<path d="M96.0144 363.823C95.9678 364.057 95.8968 364.268 95.8037 364.503C95.8976 364.291 95.9678 364.058 96.0144 363.823Z" fill="#BF9A00"/>
<path d="M403.144 362.065C402.582 362.463 401.972 362.839 401.339 363.214L392.593 358.9C393.086 358.759 393.578 358.618 394.047 358.454C394.422 358.336 394.774 358.22 395.125 358.103C398.22 359.157 400.917 360.517 403.144 362.065Z" fill="#B7B3AC"/>
<path d="M96.1086 348.746C96.0849 348.793 96.0849 348.84 96.062 348.887C96.0857 348.84 96.1086 348.794 96.1086 348.746Z" fill="#FFCE00"/>
<path d="M59.3436 342.909C60.0001 344.011 62.0636 344.808 64.3614 344.878C65.1584 344.902 66.0027 344.831 66.8699 344.738C64.9469 343.05 62.9781 341.409 60.9612 339.767C59.3901 340.587 58.7107 341.854 59.3436 342.909ZM70.4571 344.339C72.7084 344.151 75.2635 344.339 77.2567 344.949L77.4209 346.356C75.8269 345.488 73.0367 345.136 70.6213 345.323C70.4335 345.347 70.2228 345.371 70.035 345.394C72.145 347.246 74.1848 349.122 76.178 350.998C76.7178 350.669 77.3041 350.247 77.7728 349.779L77.9606 351.443C77.7026 351.607 77.4209 351.771 77.1399 351.935C77.4682 352.241 77.7965 352.545 78.1247 352.873L78.3828 355.335C77.4919 354.468 76.5536 353.577 75.6162 352.709C73.0375 353.905 70.4114 354.632 67.8318 354.843C67.6914 354.843 67.5738 354.843 67.4333 354.867C64.4324 355.007 60.9154 354.328 59.7429 352.733C59.555 352.475 59.8131 352.17 60.3292 352.053C60.8452 351.935 61.4315 352.053 61.6185 352.311C62.4857 353.506 65.3935 353.999 67.6677 353.835C69.9655 353.648 72.3099 352.967 74.7016 351.818C72.4977 349.732 70.2464 347.669 67.9257 345.629C66.6829 345.793 65.4172 345.933 64.1042 345.887C61.0796 345.817 58.313 344.738 57.445 343.284C57.2343 342.932 57.1168 342.558 57.1168 342.158C57.1168 340.986 58.1244 339.767 59.907 338.922C58.852 338.055 57.8206 337.187 56.7419 336.344C56.4373 336.109 56.5778 335.805 57.0465 335.64C57.5153 335.476 58.1252 335.524 58.4298 335.758C59.4848 336.602 60.5398 337.447 61.5949 338.314C63.3301 337.798 65.5103 337.517 68.0196 337.47C70.2236 337.447 71.6534 337.822 72.0763 338.549C72.2405 338.807 71.9359 339.088 71.4198 339.182C70.8809 339.299 70.3175 339.158 70.177 338.9C69.9892 338.572 68.8876 338.478 67.9257 338.502C66.3783 338.525 64.3385 338.666 62.627 339.135C64.7844 340.893 66.8944 342.698 68.9807 344.481C69.4731 344.433 69.9647 344.362 70.4571 344.339Z" fill="#CEA600"/>
<path d="M80.5164 374.937C82.7668 374.351 84.8303 373.624 86.6831 372.757C89.0046 371.726 90.9742 370.459 92.5445 369.052C93.8339 367.903 94.8186 366.66 95.4752 365.347L95.4988 365.371L95.5225 365.465L96.2729 369.686V369.78C96.179 370.811 95.9447 371.796 95.4759 372.757V372.781C94.8194 374.117 93.8346 375.359 92.5453 376.508C92.5216 376.532 92.4987 376.556 92.475 376.578L83.1196 377.844L86.0739 380.47C85.2533 380.846 84.3861 381.174 83.4952 381.479L81.1745 380.892L80.5164 374.937Z" fill="#D6AD00"/>
<path d="M80.1172 371.256L79.7188 367.692C82.2746 367.105 84.619 366.308 86.7062 365.347C89.0277 364.269 90.9972 363.002 92.5675 361.595C93.834 360.47 94.8188 359.251 95.4753 357.914L95.499 357.961L96.2723 362.275V362.322C96.2494 362.744 96.1784 363.143 96.0853 363.541C96.0853 363.635 96.0616 363.729 96.0151 363.823C95.9685 364.057 95.8975 364.292 95.8044 364.503C95.8044 364.527 95.7807 364.55 95.7807 364.573C95.6868 364.785 95.5937 365.019 95.4761 365.23V365.3V365.324C95.4761 365.324 95.4761 365.324 95.4761 365.347C94.8196 366.66 93.8348 367.903 92.5454 369.052C90.9743 370.459 89.0048 371.725 86.6841 372.757C84.8321 373.624 82.7686 374.352 80.5173 374.937L80.1172 371.256Z" fill="#BF9A00"/>
<path d="M280.635 128.112C282.018 128.394 283.543 128.628 285.183 128.792C285.113 128.862 285.065 128.91 285.019 128.956L280.799 128.675C280.752 128.487 280.681 128.3 280.635 128.112Z" fill="#7286D5"/>
<path d="M75.8972 332.475C80.657 333.178 84.8771 334.538 88.2299 336.32C93.2706 339.016 96.3654 342.697 96.3654 346.73C96.3654 347.082 96.3418 347.457 96.2952 347.809V347.481C96.2715 347.833 96.225 348.231 96.1311 348.63C96.1311 348.676 96.1074 348.7 96.1074 348.747C96.1074 348.795 96.0837 348.841 96.0608 348.888C95.9204 349.427 95.7326 349.943 95.4746 350.459V350.482C95.428 350.529 95.4043 350.599 95.357 350.669C95.1692 351.021 94.9585 351.373 94.7241 351.702C94.56 351.96 94.3722 352.218 94.1615 352.475C93.692 353.061 93.1531 353.624 92.5668 354.186C91.0194 355.57 89.0498 356.836 86.7054 357.891C84.4312 358.946 81.8051 359.814 78.9447 360.423L78.3821 355.335C78.5699 355.523 78.7569 355.686 78.9447 355.874C79.1088 356.062 79.4836 356.156 79.8592 356.132C79.9997 356.132 80.1402 356.109 80.2577 356.062C80.7501 355.922 80.9616 355.617 80.7264 355.359C79.8829 354.515 79.0149 353.695 78.124 352.873L77.9599 351.443C80.2814 349.919 81.1952 348.301 80.4218 346.941C79.9058 346.05 78.7332 345.37 77.2568 344.948L75.8972 332.475Z" fill="#FFCE00"/>
<path d="M293.906 124.384C294.773 126.706 295.265 128.605 295.5 129.683L285.019 128.956C285.065 128.91 285.113 128.862 285.183 128.792C285.183 128.792 285.183 128.792 285.207 128.792C286.966 127.128 289.708 125.533 293.906 124.384Z" fill="#5A68BD"/>
<path d="M302.651 137.889C300.635 138.757 295.336 140.68 289.896 139.999C288.701 139.835 287.481 139.554 286.309 139.109C285.114 138.663 283.941 138.054 282.84 137.186C283.59 137.257 284.363 137.303 285.161 137.327L295.712 130.668C295.712 130.668 295.642 130.317 295.501 129.684L308.936 130.598C308.82 131.114 308.655 131.607 308.468 132.122C304.669 135.357 302.348 137.82 302.348 137.82C302.348 137.82 302.44 137.843 302.651 137.889Z" fill="#5A68BD"/>
<path d="M347.575 338.454C346.754 339.555 346.168 340.751 345.863 341.971H345.84L344.386 342.158C345.253 341.149 345.98 339.79 346.566 338.172L347.575 338.454Z" fill="#856FC5"/>
<path d="M161.689 460.494C159.086 463.308 155.264 465.699 150.598 467.388L149.308 463.824C149.683 463.636 149.825 463.331 149.567 463.073C148.113 461.643 146.588 460.213 145.088 458.783C146.26 458.103 147.198 457.423 147.902 456.743C150.153 457.071 152.38 457.493 154.607 458.032C157.023 458.619 159.461 459.368 161.689 460.494Z" fill="#FFCE00"/>
<path d="M282.416 136.858C282.322 136.812 282.229 136.718 282.135 136.647C282.135 136.647 281.948 135.826 282.112 134.583C282.112 134.559 282.112 134.559 282.112 134.536C281.806 132.66 281.385 130.691 280.799 128.674C280.751 128.487 280.681 128.3 280.635 128.112C264.409 124.97 264.527 116.506 266.285 111.371C259.251 109.097 252.686 112.004 248.606 114.63V114.654C249.052 122.298 255.851 130.668 255.851 130.668C255.851 130.668 255.897 130.691 256.015 130.762H256.039C256.789 131.136 259.72 132.497 264.433 133.904C267.903 134.936 272.31 135.991 277.539 136.67C279.087 136.858 280.728 137.046 282.439 137.163C282.439 137.069 282.439 136.975 282.416 136.882L282.416 136.858Z" fill="#4B4F9F"/>
<path d="M342.347 116.483C344.762 122.86 344.622 130.082 333.109 131.958C332.617 132.028 332.148 132.098 331.703 132.169C324.176 133.224 319.158 132.449 315.829 131.09L315.783 131.066C314.328 130.457 313.18 129.729 312.312 129.003C311.585 129.589 310.858 130.152 310.179 130.691C309.592 131.183 309.006 131.675 308.466 132.121C307.646 134.301 306.168 136.412 303.519 137.514C303.519 137.514 303.215 137.678 302.651 137.889C303.145 137.983 304.199 138.217 305.653 138.451C305.653 138.451 305.653 138.451 305.676 138.475C311.256 139.483 322.768 141.219 331.937 140.164C334.774 139.835 337.611 138.78 340.284 137.233C342.277 136.108 344.153 134.701 345.841 133.153V133.13C350.178 129.12 353.273 124.102 353.695 119.789C350.084 117.538 346.239 116.553 342.347 116.483Z" fill="#4B4F9F"/>
<path d="M331.701 132.169C324.175 133.224 319.157 132.45 315.828 131.09L331.701 132.169Z" fill="#705AAD"/>
<path d="M40.2815 395.101C40.7739 396.132 41.5006 397.094 42.3678 398.032C40.8204 399.064 40.0937 400.306 39.9059 401.666C39.5539 400.728 39.3669 399.79 39.3669 398.806V391.56C39.3906 392.756 39.6952 393.952 40.2815 395.077V395.101Z" fill="#BF9A00"/>
<path d="M266.403 229.145C272.662 229.145 277.728 224.08 277.728 217.82C277.728 217.796 277.728 217.749 277.728 217.726L299.674 218.945L299.626 219.788L272.1 230.223L264.784 229.308L264.808 229.026C265.324 229.097 265.863 229.145 266.403 229.145Z" fill="#6295D8"/>
<path d="M266.403 206.495C272.64 206.495 277.681 211.512 277.728 217.726L255.149 216.459C255.594 212.614 258.009 209.355 261.339 207.69C262.862 206.917 264.598 206.495 266.403 206.495Z" fill="#E5E8F0"/>
<path d="M92.5446 376.508C93.834 375.359 94.8188 374.116 95.4753 372.78V372.756C95.944 371.795 96.1792 370.81 96.2723 369.779V376.039L92.4736 376.578C92.4973 376.555 92.521 376.531 92.5446 376.508Z" fill="#C9A200"/>
<path d="M243.096 321.853L242.463 344.737L242.159 356.132L216.109 359.673L218.407 339.04L218.547 337.844L243.096 321.853Z" fill="#7FB0E4"/>
<path d="M129.098 449.966C130.129 449.989 131.161 449.896 132.24 449.778C129.825 447.691 127.386 445.628 124.878 443.588C122.885 444.62 122.041 446.214 122.838 447.527C123.682 448.888 126.237 449.896 129.098 449.966ZM133.577 450.928C132.029 451.116 130.435 451.279 128.793 451.233C124.995 451.139 121.572 449.802 120.446 447.974C119.345 446.145 120.61 443.894 123.542 442.534C123.542 442.534 123.542 442.534 123.566 442.51C122.229 441.455 120.916 440.376 119.58 439.298C119.204 439.016 119.392 438.618 119.978 438.407C120.565 438.22 121.338 438.266 121.69 438.571C123.027 439.602 124.316 440.681 125.653 441.76C127.833 441.127 130.553 440.751 133.671 440.728C136.438 440.682 138.243 441.151 138.76 442.041C138.947 442.37 138.572 442.745 137.915 442.862C137.259 442.98 136.579 442.816 136.368 442.487C136.133 442.112 134.773 441.971 133.578 441.995C131.632 442.019 129.1 442.206 126.942 442.792C129.638 444.996 132.288 447.223 134.891 449.474C135.501 449.404 136.11 449.333 136.72 449.286C141.62 448.888 147.669 449.919 149.194 452.569C149.92 453.834 149.452 455.288 147.904 456.742C147.107 456.648 146.31 456.532 145.49 456.461C146.662 455.43 147.483 454.21 146.803 452.991C145.678 451.069 140.894 450.224 136.931 450.529C136.697 450.553 136.463 450.599 136.204 450.623C138.292 452.475 140.331 454.304 142.324 456.18C141.315 456.109 140.284 456.062 139.252 456.039C137.398 454.304 135.499 452.616 133.577 450.928Z" fill="#CEA600"/>
<path d="M275.335 351.584L282.885 350.552L282.487 353.74L275.242 351.982L275.335 351.584Z" fill="#7FB0E4"/>
<path d="M358.431 438.524L362.909 438.618C362.909 438.618 364.808 439.064 367.833 439.603C367.176 443.425 366.402 447.2 365.488 450.975C363.612 451.795 361.572 452.405 359.439 452.71L354.398 453.437C355.335 450.084 356.297 446.731 357.235 443.354C357.681 441.76 358.149 440.142 358.431 438.524Z" fill="#CE684B"/>
<path d="M380.588 352.967L355.594 340.634L356.274 331.865C358.689 330.716 361.432 329.802 364.409 329.099L364.948 331.443C364.386 331.631 364.222 332.029 364.55 332.287C365.863 333.32 367.106 334.351 368.371 335.406C365.558 336.743 364.338 338.899 365.417 340.658C366.472 342.416 369.801 343.706 373.46 343.8C375.054 343.848 376.578 343.683 378.055 343.496C380.869 345.958 383.589 348.443 386.238 350.952C384.34 351.889 382.44 352.545 380.588 352.967Z" fill="#CBC6BD"/>
<path d="M131.138 371.279L130.176 393.225L96.2722 384.69V384.668V377.211V376.039L131.138 371.279Z" fill="#9DC6EA"/>
<path d="M403.144 362.065C400.917 360.517 398.22 359.157 395.125 358.102C398.853 356.812 402.019 355.124 404.411 353.178C405.888 354.374 407.107 355.71 407.928 357.117C407.928 357.117 407.928 357.117 407.928 357.141C406.872 358.899 405.231 360.564 403.144 362.065Z" fill="#B7B3AC"/>
<path d="M400.33 373.624C397.001 371.514 393.507 369.451 389.944 367.481C394.328 366.496 398.22 365.019 401.339 363.214L407.412 366.191C407.599 366.473 407.764 366.731 407.928 367.012C406.427 369.521 403.777 371.771 400.33 373.624Z" fill="#9B9894"/>
<path d="M142.322 456.18C143.377 456.25 144.432 456.344 145.487 456.461C144.971 456.883 144.409 457.258 143.87 457.61C143.354 457.141 142.838 456.649 142.322 456.18Z" fill="#FFCE00"/>
<path d="M352.991 407.927C356.18 407.458 359.322 407.692 362.253 408.513C361.338 410.365 360.495 412.288 359.744 414.211C359.322 415.29 358.947 416.533 358.877 417.681C358.783 419.04 359.064 420.307 360.073 421.151C360.893 421.808 361.948 422.018 362.909 422.418C365.817 423.637 367.669 426.638 368.279 429.733C368.889 432.828 368.443 436.017 367.928 439.112C367.904 439.276 367.881 439.44 367.834 439.604C364.809 439.065 362.91 438.619 362.91 438.619L358.432 438.525C358.69 437.048 358.784 435.571 358.62 434.094C358.292 430.975 356.462 427.81 353.485 426.825C351.68 426.239 349.71 426.497 347.811 426.333C345.911 426.145 343.825 425.231 343.285 423.402C343.027 422.488 343.215 421.479 343.426 420.542C344.293 416.603 345.349 412.687 346.615 408.842L352.991 407.927Z" fill="#CE684B"/>
<path d="M266.731 316.507L264.269 349.919L264.035 353.131L242.159 356.132L242.464 344.737L243.096 321.853L255.851 313.553L256.883 313.835L266.731 316.507Z" fill="#BF495A"/>
<path d="M264.128 141.102L263.941 145.51L256.415 144.971C258.806 143.494 261.502 142.181 264.128 141.102Z" fill="#7286D5"/>
<path d="M101.618 455.875C102.509 458.196 104.174 460.354 106.425 462.252C104.736 463.237 103.4 464.433 102.626 465.84C101.477 463.964 100.867 461.948 100.867 459.837V451.935C100.868 453.295 101.126 454.608 101.618 455.875Z" fill="#DBB100"/>
<path d="M345.535 344.268C345.535 345.628 345.839 346.965 346.449 348.231C346.356 348.372 346.309 348.536 346.238 348.7C346.004 348.606 345.769 348.513 345.535 348.466V344.268Z" fill="#B7B3AC"/>
<path d="M222.627 457.728C220.071 459.721 216.554 462.37 212.498 465.043C205.535 464.668 198.547 465.629 193.272 469.286C192.475 469.825 190.974 470.951 189.427 472.241L188.653 471.561C196.461 464.902 213.343 454.186 216.015 452.522C216.25 452.358 216.367 452.288 216.367 452.288L220.166 451.021C220.635 453.413 221.478 455.687 222.627 457.728Z" fill="#5578B7"/>
<path d="M236.508 468.56C230.647 466.965 225.605 463.05 222.627 457.727C221.478 455.687 220.634 453.412 220.165 451.021C220.119 450.669 220.048 450.318 220.001 449.966C219.837 448.888 219.767 447.833 219.767 446.778C219.767 444.456 220.141 442.206 220.798 440.048C223.33 431.982 230.27 425.652 239.157 424.362H239.204C236.906 428.512 234.609 432.662 232.287 436.789C231.889 437.515 231.49 438.453 231.983 439.133C232.263 439.509 232.757 439.649 233.225 439.766C235.429 440.282 237.751 440.212 239.931 440.774C242.135 441.337 244.339 442.79 244.808 444.994C245.112 446.542 244.527 448.089 243.963 449.543C241.478 455.875 238.993 462.206 236.508 468.56Z" fill="#5C80CB"/>
<path d="M289.356 326.942C294.703 332.287 294.703 340.939 289.356 346.285C287.527 348.114 285.323 349.31 282.979 349.872L286.215 324.597C287.34 325.206 288.395 325.98 289.356 326.942Z" fill="#E5E8F0"/>
<path d="M341.033 344.034C342.252 344.034 343.425 343.354 344.386 342.158L345.84 341.971C345.629 342.722 345.535 343.495 345.535 344.269V348.466V349.498L326.191 364.363L325.16 364.104L326.473 344.62L338.455 342.979C339.252 343.659 340.12 344.034 341.033 344.034Z" fill="#856FC5"/>
<path d="M92.6855 383.8C93.9047 382.698 94.8429 381.502 95.4758 380.236C95.4758 380.212 95.4758 380.212 95.4758 380.212C95.9445 379.251 96.1796 378.243 96.2727 377.211V384.667V384.69L92.6855 383.8Z" fill="#BF9A00"/>
<path d="M409.381 371.935C409.381 370.224 408.889 368.559 407.928 367.012C408.022 366.871 408.092 366.707 408.162 366.566L409.381 367.176V371.935Z" fill="#898684"/>
<path d="M350.483 353.178C348.865 351.865 347.599 350.411 346.778 348.888C349.006 349.591 351.21 350.365 353.39 351.138C352.335 351.748 351.35 352.451 350.483 353.178Z" fill="#CBC6BD"/>
<path d="M86.4481 395.195C81.4776 397.445 74.9826 398.806 67.8784 398.806C61.0322 398.806 54.7479 397.54 49.8477 395.429C57.4206 393.671 66.073 393.413 73.8802 393.6C78.1713 393.695 82.6265 393.999 86.4481 395.195Z" fill="#BF9A00"/>
<path d="M377.447 368.793C366.919 368.793 357.588 366.144 351.773 362.064C353.953 360.517 356.673 359.156 359.744 358.101C364.715 359.813 370.647 360.845 377.048 360.891C381.504 362.979 385.794 365.182 389.944 367.48C386.098 368.325 381.878 368.793 377.447 368.793Z" fill="#B7B3AC"/>
<path d="M264.784 229.309L220.447 223.775L220.564 219.906L231.044 215.1L255.148 216.459C255.078 216.905 255.054 217.35 255.054 217.819C255.054 221.922 257.234 225.509 260.494 227.503C261.783 228.276 263.261 228.816 264.808 229.026L264.784 229.309Z" fill="#6295D8"/>
<path d="M78.3828 355.335L78.1248 352.873C79.0156 353.694 79.8836 354.515 80.7272 355.359C80.9615 355.617 80.7508 355.922 80.2584 356.062C80.1409 356.109 80.0004 356.132 79.8599 356.132C79.4843 356.156 79.1095 356.062 78.9454 355.874C78.7576 355.686 78.5698 355.523 78.3828 355.335Z" fill="#CEA600"/>
<path d="M376.32 420.001C374.867 417.117 372.804 414.631 370.318 412.663C379.814 407.082 394.234 399.438 397.306 402.276C401.784 406.379 379.509 418.337 377.517 419.416C377.493 419.416 377.493 419.416 377.469 419.439C377.399 419.439 377.376 419.463 377.376 419.463L376.32 420.001Z" fill="#5578B7"/>
<path d="M188.629 476.508C186.59 476.977 185.417 476.977 184.948 476.649C185.98 475.265 187.739 473.648 189.426 472.241L192.849 475.289C191.42 475.781 190.013 476.204 188.629 476.508Z" fill="#5578B7"/>
<path d="M162.299 228.488L162.323 229.285L136.788 240.704L135.711 241.196L65.5343 236.976L65.4404 236.624L118.641 222.181L162.299 228.488Z" fill="#6295D8"/>
<path d="M343.284 423.402C343.823 425.231 345.911 426.145 347.81 426.332C349.709 426.496 351.679 426.238 353.484 426.825C356.461 427.809 358.291 430.974 358.619 434.093C358.783 435.57 358.689 437.047 358.431 438.525C358.15 440.142 357.681 441.76 357.236 443.355C356.298 446.731 355.336 450.084 354.399 453.437L336.65 455.993C337.494 452.546 338.244 449.053 338.877 445.536C339.347 442.933 339.768 440.26 339.347 437.634C338.948 435.008 337.564 432.406 335.22 431.163C333.485 430.226 331.469 430.132 329.546 429.686C327.646 429.24 325.63 428.255 324.974 426.403C324.598 425.348 324.739 424.176 324.88 423.074C325.419 419.253 326.145 415.43 327.013 411.679L346.615 408.842C345.349 412.687 344.294 416.603 343.426 420.542C343.214 421.479 343.026 422.487 343.284 423.402Z" fill="#5C80CB"/>
<path d="M170.224 243.072L192.451 232.849L220.025 236.835L219.72 246.237L170.201 243.259C170.224 243.189 170.224 243.142 170.224 243.072Z" fill="#6295D8"/>
<path d="M367.716 340.212C366.942 338.946 367.763 337.422 369.662 336.414C372.101 338.407 374.469 340.399 376.79 342.416C375.735 342.534 374.727 342.604 373.742 342.58C370.998 342.51 368.513 341.548 367.716 340.212Z" fill="#CBC6BD"/>
<path d="M227.95 467.763C223.378 466.473 217.938 465.348 212.498 465.043C216.555 462.37 220.071 459.72 222.627 457.728C225.605 463.05 230.646 466.966 236.508 468.56C239.392 469.357 242.487 469.569 245.629 469.123L251.889 468.232L276.157 464.715L297.118 461.691L319.487 458.478L336.649 455.993L354.398 453.437L359.439 452.71C361.573 452.405 363.613 451.795 365.488 450.975C370.154 448.841 373.929 445.23 376.251 440.776C386.286 441.877 399.298 442.019 405.114 436.649C413.836 428.63 379.557 430.623 379.557 429.404C379.557 429.193 380.542 428.888 382.839 428.443C398.877 425.325 413.719 419.462 405.114 415.547C396.955 411.842 379.275 418.713 377.517 419.416C379.51 418.337 401.785 406.379 397.306 402.276C394.234 399.439 379.814 407.082 370.318 412.663C367.95 410.764 365.206 409.357 362.252 408.512C359.321 407.692 356.179 407.457 352.991 407.926L346.613 408.841L327.011 411.677L311.02 413.975L291.114 416.859L272.544 419.532L251.887 422.534L239.203 424.363H239.156C230.269 425.652 223.329 431.983 220.796 440.049C205.392 437.704 174.348 433.437 186.282 439.393C199.694 446.075 211.933 445.325 215.169 444.973C209.12 445.934 171.253 452.195 187.454 455.806C203.257 459.323 213.996 453.696 216.012 452.523C213.34 454.188 196.458 464.903 188.65 471.561L165.297 450.834C164.616 444.199 157.84 438.525 148.158 435.594L96.2693 389.52V384.69L130.173 393.225L165.766 402.158L208.181 412.827L210.362 411.092L241.335 386.637L262.812 369.685L282.414 354.21L282.484 353.741L325.158 364.105L326.189 364.363L345.533 349.498V352.17V362.042V371.936C345.533 381.128 359.835 388.536 377.444 388.536C390.879 388.536 402.391 384.222 407.104 378.102C408.112 376.789 408.793 375.406 409.144 373.952C409.284 373.295 409.378 372.639 409.378 371.935V367.176L431.114 377.891C431.981 380.493 432.778 383.729 433.341 387.434L433.576 407.621C431.278 426.777 421.29 450.881 393.2 473.976C340.445 517.352 250.761 526.731 250.761 526.731L205.227 486.286C207.642 486.098 210.057 485.7 212.449 485.231C218.076 484.176 223.656 482.91 229.166 481.409C231.769 480.682 234.677 479.651 235.708 477.166C236.599 475.032 235.684 472.476 234.044 470.858C232.405 469.24 230.177 468.373 227.95 467.763Z" fill="#DBCB56"/>
<path d="M325.536 24.5476C326.708 30.0578 328.35 35.2161 330.39 39.8347C332.453 44.454 334.891 48.5573 337.682 51.9567C332.335 54.5828 328.115 61.6404 326.45 70.7607L320.565 102.93L314.68 70.7607C313.836 66.2124 312.383 62.1557 310.437 58.9196C308.514 55.6844 306.123 53.2689 303.449 51.9559C309.03 45.1563 313.25 35.5902 315.595 24.5468L320.565 0.983002L325.536 24.5476Z" fill="#F4F2ED"/>
<path d="M95.4756 387.645C95.9443 386.684 96.1795 385.722 96.2726 384.69V389.52L95.0535 388.442C95.1939 388.184 95.358 387.926 95.4756 387.645Z" fill="#C9A200"/>
<path d="M242.159 356.132L241.338 386.637L210.365 411.092L216.11 359.673L242.159 356.132Z" fill="#7FB0E4"/>
<path d="M212.498 465.043C206.59 468.982 199.579 473.015 192.85 475.289L189.427 472.241C190.974 470.951 192.475 469.826 193.272 469.286C198.547 465.629 205.535 464.668 212.498 465.043Z" fill="#5578B7"/>
<path d="M132.24 449.779C131.161 449.897 130.13 449.99 129.098 449.967C126.237 449.897 123.682 448.888 122.837 447.528C122.04 446.215 122.885 444.621 124.877 443.589C127.386 445.629 129.825 447.692 132.24 449.779Z" fill="#FFCE00"/>
<path d="M162.158 216.46L162.064 211.232L176.813 212.051L198.149 213.248L184.667 219.273L162.158 216.46Z" fill="#DC5057"/>
<path d="M95.4752 395.078C95.9439 394.117 96.1791 393.108 96.2722 392.101V399.932C96.202 400.494 96.0615 401.058 95.85 401.62C95.8264 401.574 95.7798 401.503 95.7325 401.456C94.9118 400.448 93.9507 399.44 92.8254 398.549C93.9744 397.47 94.8652 396.322 95.4752 395.102V395.078Z" fill="#BF9A00"/>
<path d="M114.279 159.156C114.068 160.798 114.936 162.579 116.436 163.494C116.976 163.822 117.562 164.057 118.195 164.244C117.913 161.408 117.585 158.594 117.234 155.78C115.686 156.248 114.491 157.608 114.279 159.156ZM124.409 171.794C124.737 169.496 122.58 167.245 120.329 166.377C120.189 166.33 120.048 166.307 119.907 166.26C120.189 169.378 120.423 172.497 120.634 175.614C122.135 175.006 124.104 173.833 124.409 171.794ZM125.886 172.052C125.558 174.256 123.659 176.108 120.728 177.163C120.845 179.039 120.962 180.938 121.032 182.838C121.056 183.236 120.728 183.541 120.329 183.541C120.213 183.541 120.095 183.517 120.001 183.471C119.743 183.377 119.556 183.119 119.532 182.838C119.462 181.08 119.345 179.321 119.251 177.562C116.789 178.148 114.608 178.124 112.779 177.398C112.685 177.374 112.592 177.327 112.498 177.28C110.411 176.366 108.465 174.232 108.653 171.746C108.677 171.348 109.052 171.066 109.45 171.113C109.872 171.161 110.177 171.512 110.154 171.91C110.014 173.762 111.655 175.451 113.296 176.06C114.891 176.693 116.883 176.717 119.158 176.107C118.947 172.66 118.689 169.213 118.361 165.79C117.446 165.508 116.531 165.228 115.664 164.688C113.695 163.492 112.499 161.101 112.78 158.92C113.085 156.739 114.82 154.841 117.048 154.301C116.86 152.824 116.696 151.347 116.485 149.869C116.415 149.471 116.696 149.119 117.118 149.095C117.516 149.049 117.915 149.353 117.962 149.752C118.174 151.205 118.338 152.683 118.525 154.136C120.002 154.136 121.62 154.582 123.308 155.473C124.785 156.247 125.512 157.255 125.372 158.31C125.324 158.709 124.95 158.967 124.527 158.897C124.129 158.826 123.847 158.451 123.894 158.052C123.965 157.584 123.285 157.068 122.629 156.716C121.597 156.177 120.167 155.614 118.713 155.59C119.112 158.615 119.44 161.663 119.745 164.711C120.097 164.829 120.471 164.923 120.823 165.063C123.611 166.096 126.355 168.909 125.886 172.052Z" fill="#989C9F"/>
<path d="M409.381 362.041V367.176L408.162 366.566C408.983 365.136 409.381 363.612 409.381 362.041Z" fill="#898684"/>
<path d="M268.279 434.82C272.17 435.804 277.188 434.984 279.416 438.337C280.588 440.095 280.447 442.416 280.19 444.527C279.393 451.35 278.033 458.103 276.157 464.714L251.889 468.231C253.765 462.604 255.594 456.93 257.329 451.256C258.103 448.794 258.853 446.239 258.596 443.683C258.338 441.104 256.837 438.501 254.398 437.704C252.242 437.024 249.123 437.353 248.49 435.172C248.303 434.468 248.49 433.694 248.678 432.991C249.639 429.474 250.717 425.98 251.89 422.534L272.547 419.533C270.647 423.402 268.749 427.293 266.85 431.162C266.451 431.936 266.075 432.851 266.427 433.624C266.754 434.304 267.552 434.633 268.279 434.82Z" fill="#5C80CB"/>
<path d="M380.612 343.213C380.846 343.19 381.081 343.143 381.315 343.143C385.137 342.838 389.756 343.635 390.811 345.511C391.772 347.176 389.732 348.888 388.021 349.966C385.606 347.691 383.144 345.441 380.612 343.213Z" fill="#CBC6BD"/>
<path d="M277.727 217.82C277.727 224.08 272.663 229.145 266.402 229.145C265.863 229.145 265.323 229.097 264.807 229.027C263.26 228.817 261.783 228.277 260.493 227.503C257.234 225.51 255.053 221.923 255.053 217.82C255.053 217.35 255.077 216.905 255.147 216.46L277.726 217.727C277.727 217.75 277.727 217.797 277.727 217.82Z" fill="#6295D8"/>
<path d="M40.2817 365.347C40.4221 365.676 40.6328 366.004 40.8443 366.332C40.3985 366.708 39.9297 367.106 39.5076 367.481C39.6725 366.753 39.9069 366.027 40.2817 365.347Z" fill="#D6AD00"/>
<path d="M401.339 363.214C401.972 362.839 402.582 362.463 403.144 362.065C404.902 363.308 406.357 364.715 407.412 366.191L401.339 363.214Z" fill="#9B9894"/>
<path d="M92.5674 383.917C92.6147 383.87 92.6613 383.847 92.6849 383.799L96.2721 384.69C96.1782 385.722 95.9439 386.684 95.4752 387.645C95.3576 387.926 95.1935 388.184 95.053 388.442L91.2078 385.019C91.6773 384.667 92.146 384.292 92.5674 383.917Z" fill="#BF9A00"/>
<path d="M345.535 362.041C345.535 363.776 346.027 365.44 346.966 367.011C346.027 368.559 345.535 370.224 345.535 371.935V362.041Z" fill="#898684"/>
<path d="M407.412 366.191L408.162 366.567C408.092 366.707 408.022 366.871 407.928 367.012C407.763 366.731 407.599 366.473 407.412 366.191Z" fill="#9B9894"/>
<path d="M264.784 229.309L220.447 223.776L213.975 222.955L220.564 219.907L231.045 215.1L220.751 214.514L218.806 214.42H218.782C211.326 221.243 201.525 226.613 201.525 226.613L172.803 227.199C172.803 227.199 171.49 226.823 169.427 226.096L163.636 228.7L162.323 229.286L136.79 240.704L136.766 241.243L162.51 242.79L169.873 243.235L170.224 243.071L192.451 232.849L220.025 236.834L245.09 240.468L272.101 230.222L264.784 229.309Z" fill="#E46370"/>
<path d="M163.636 228.699L169.427 226.096C167.504 225.416 164.948 224.431 162.229 223.095C158.125 221.125 153.694 218.429 150.529 215.006H150.505L146.801 214.536L118.641 222.18L162.299 228.487L163.636 228.699Z" fill="#E46370"/>
<path d="M120.328 166.378C122.58 167.245 124.736 169.497 124.408 171.794C124.103 173.834 122.134 175.007 120.633 175.616C120.422 172.497 120.188 169.379 119.906 166.261C120.047 166.307 120.188 166.331 120.328 166.378Z" fill="#CBC6BD"/>
<path d="M377.447 388.536C359.838 388.536 345.536 381.127 345.536 371.936C345.536 370.225 346.028 368.56 346.967 367.012C351 373.765 363.122 378.666 377.447 378.666C386.427 378.666 394.54 376.743 400.332 373.625C402.63 375.078 404.904 376.579 407.108 378.103C402.394 384.222 390.882 388.536 377.447 388.536Z" fill="#898684"/>
<path d="M282.487 353.741L282.417 354.21L262.815 369.685L264.035 353.132L275.335 351.584L275.242 351.983L282.487 353.741Z" fill="#7FB0E4"/>
<path d="M88.6995 382.792L92.6852 383.8C92.6615 383.848 92.6149 383.87 92.5676 383.918C92.1454 384.293 91.6767 384.668 91.208 385.019L88.6995 382.792Z" fill="#C9A200"/>
<path d="M326.473 344.62L325.16 364.104L282.487 353.741L282.885 350.552L326.473 344.62Z" fill="#9B88D4"/>
<path d="M245.3 240.493L243.096 321.853L218.548 337.844L228.724 246.659L245.089 240.47L245.3 240.493Z" fill="#7FB0E4"/>
<path d="M92.4738 376.578C90.9501 377.914 89.0042 379.156 86.7064 380.212C86.4957 380.306 86.2842 380.4 86.0735 380.47L83.1191 377.844L92.4738 376.578Z" fill="#D6AD00"/>
<path d="M409.381 344.268V352.17C409.381 350.811 409.053 349.498 408.467 348.231C409.053 346.965 409.381 345.628 409.381 344.268Z" fill="#B7B3AC"/>
<path d="M406.919 337.867C403.262 335.359 399.487 332.92 395.524 330.575C400.565 332.357 404.551 334.913 406.919 337.867Z" fill="#CBC6BD"/>
<path d="M282.417 136.882C282.534 136.999 282.675 137.093 282.815 137.186C282.675 137.186 282.557 137.163 282.439 137.163C282.44 137.069 282.44 136.975 282.417 136.882Z" fill="#7286D5"/>
<path d="M253.577 53.6691C255.077 53.0599 257.047 51.8873 257.352 49.8475C257.68 47.5496 255.523 45.2992 253.272 44.4548C253.132 44.3846 252.991 44.3609 252.85 44.3144C253.132 47.4321 253.366 50.5506 253.577 53.6691ZM247.223 37.2323C247.013 38.8499 247.88 40.6325 249.381 41.5462C249.92 41.8745 250.506 42.1089 251.14 42.2967C250.859 39.4836 250.53 36.646 250.178 33.8321C248.63 34.3016 247.434 35.662 247.223 37.2323ZM243.096 49.9643C242.956 51.8163 244.596 53.5049 246.239 54.1378C247.832 54.7477 249.826 54.7706 252.1 54.1614C251.888 50.7147 251.631 47.2679 251.303 43.8449C250.388 43.5632 249.474 43.2822 248.607 42.7433C246.637 41.5478 245.442 39.1561 245.722 36.975C246.027 34.7948 247.762 32.8954 249.99 32.3794C249.99 32.3794 249.99 32.3794 249.99 32.3557C249.802 30.8785 249.638 29.4013 249.427 27.9242C249.357 27.5257 249.639 27.1974 250.06 27.1501C250.459 27.1035 250.857 27.4081 250.904 27.8066C251.115 29.2601 251.279 30.7373 251.467 32.2144C252.944 32.1908 254.562 32.6366 256.25 33.5275C257.727 34.3016 258.454 35.3093 258.313 36.3651C258.266 36.7636 257.891 37.0216 257.469 36.9514C257.07 36.8811 256.789 36.5055 256.836 36.107C256.906 35.662 256.227 35.1222 255.57 34.794C254.538 34.2314 253.108 33.6687 251.655 33.6451C252.053 36.6697 252.382 39.7179 252.686 42.7662C253.037 42.8838 253.413 42.9769 253.765 43.1181C256.555 44.1502 259.299 46.987 258.829 50.1055C258.501 52.3094 256.602 54.1851 253.671 55.2173C253.789 57.0929 253.905 58.9922 253.976 60.8916C253.999 61.2901 253.671 61.5947 253.272 61.5947C253.155 61.5947 253.038 61.571 252.944 61.5481C252.686 61.4305 252.498 61.1725 252.475 60.8916C252.405 59.1335 252.288 57.3746 252.195 55.6394C249.733 56.202 247.552 56.1784 245.723 55.4516C245.629 55.4279 245.535 55.3814 245.442 55.3577C243.354 54.4203 241.409 52.2866 241.596 49.8009C241.62 49.4024 241.995 49.1207 242.393 49.1681C242.815 49.2138 243.12 49.5658 243.096 49.9643Z" fill="#BF9A00"/>
<path d="M96.2723 354.913L95.4753 350.482C95.9441 351.419 96.1792 352.427 96.2723 353.459V354.913Z" fill="#D6AD00"/>
<path d="M114.279 159.156C114.49 157.609 115.686 156.249 117.234 155.78C117.586 158.594 117.914 161.407 118.195 164.244C117.562 164.057 116.976 163.822 116.436 163.494C114.936 162.579 114.069 160.797 114.279 159.156Z" fill="#CBC6BD"/>
<path d="M289.896 140C288.701 139.835 287.482 139.555 286.31 139.109C285.254 139.812 284.058 140.75 282.793 141.852V141.876C281.268 143.213 279.627 144.83 277.986 146.542L292.523 147.597C291.163 143.213 289.85 140.445 289.85 140.445L289.896 140Z" fill="#705AAD"/>
<path d="M256.039 130.762H256.015L224.854 142.673L256.414 144.971C258.805 143.494 261.502 142.181 264.127 141.102C271.021 138.241 277.538 136.741 277.538 136.741V136.67C272.31 135.99 267.902 134.935 264.432 133.904C259.72 132.497 256.789 131.136 256.039 130.762Z" fill="#705AAD"/>
<path d="M345.84 133.153C344.153 134.701 342.276 136.108 340.284 137.233C337.611 138.78 334.773 139.835 331.937 140.164C322.769 141.219 311.256 139.483 305.676 138.475C307.224 141.781 308.185 145.298 308.724 148.769L339.369 150.996H339.463L371.35 135.686L371.42 134.911L345.84 133.153Z" fill="#705AAD"/>
<path d="M378.83 430.318C378.83 430.013 378.83 429.732 378.806 429.427L379.557 429.403C379.557 430.622 413.836 428.629 405.114 436.648C399.299 442.018 386.286 441.876 376.25 440.775C377.892 437.61 378.83 434.046 378.83 430.318Z" fill="#5578B7"/>
<path d="M241.596 49.8001C241.408 52.2858 243.354 54.4195 245.441 55.3569C245.535 55.3806 245.629 55.4272 245.723 55.4508C247.552 56.1776 249.732 56.2013 252.194 55.6386C252.288 57.3738 252.405 59.1319 252.475 60.8908C252.499 61.1717 252.686 61.4298 252.944 61.5473C253.037 61.571 253.155 61.5939 253.272 61.5939C253.671 61.5939 253.999 61.2893 253.975 60.8908C253.905 58.9915 253.788 57.0921 253.671 55.2165C256.602 54.1843 258.501 52.3087 258.829 50.1047C259.298 46.9862 256.555 44.1495 253.765 43.1173C253.413 42.9769 253.038 42.883 252.686 42.7654C252.381 39.7171 252.053 36.6689 251.655 33.6443C253.108 33.668 254.539 34.2306 255.57 34.7932C256.227 35.1215 256.906 35.6604 256.836 36.1063C256.789 36.5047 257.07 36.8803 257.469 36.9506C257.891 37.0208 258.266 36.7628 258.313 36.3643C258.453 35.3093 257.727 34.3008 256.25 33.5267C254.562 32.6358 252.944 32.19 251.467 32.2137C251.279 30.7365 251.115 29.2593 250.904 27.8058C250.858 27.4073 250.458 27.1027 250.06 27.1493C249.638 27.1958 249.357 27.5241 249.427 27.9234C249.639 29.4006 249.802 30.8777 249.99 32.3549C249.99 32.3786 249.99 32.3786 249.99 32.3786C247.762 32.8947 246.027 34.7932 245.722 36.9743C245.441 39.1545 246.637 41.5463 248.606 42.7425C249.474 43.2815 250.388 43.5632 251.303 43.8441C251.631 47.2671 251.889 50.7139 252.1 54.1607C249.826 54.7706 247.832 54.7469 246.238 54.137C244.597 53.5041 242.956 51.8163 243.096 49.9635C243.12 49.565 242.815 49.2131 242.392 49.1665C241.995 49.12 241.619 49.4016 241.596 49.8001ZM249.99 19.1787C263.987 19.1787 275.335 30.5274 275.335 44.5251C275.335 58.5227 263.987 69.8707 249.99 69.8707C235.992 69.8707 224.643 58.522 224.643 44.5251C224.643 30.5282 235.992 19.1787 249.99 19.1787Z" fill="#FFCE00"/>
<path d="M346.473 348.77L346.637 348.63C346.685 348.7 346.731 348.794 346.778 348.888C346.661 348.84 346.567 348.794 346.473 348.77Z" fill="#DBCB56"/>
<path d="M59.3438 342.909C58.711 341.854 59.3904 340.588 60.9615 339.767C62.9776 341.408 64.9472 343.049 66.8702 344.737C66.0022 344.831 65.1586 344.901 64.3616 344.878C62.0638 344.807 60.0003 344.01 59.3438 342.909Z" fill="#FFCE00"/>
<path d="M165.769 402.158L130.176 393.225L131.137 371.279L166.706 366.425C166.355 379.931 166.026 392.288 165.769 402.158Z" fill="#DC5057"/>
<path d="M334.609 334.937L346.567 338.172C345.981 339.79 345.254 341.15 344.387 342.158L338.455 342.978C336.743 341.525 335.336 338.618 334.609 334.937Z" fill="#DFE3E5"/>
<path d="M67.8787 331.865C70.6689 331.865 73.3652 332.076 75.8974 332.475L77.257 344.948C75.2638 344.338 72.7087 344.152 70.4574 344.339C69.965 344.362 69.4726 344.432 68.9802 344.479C66.8939 342.697 64.7831 340.892 62.6265 339.133C64.338 338.664 66.3778 338.523 67.9252 338.5C68.8863 338.476 69.9887 338.57 70.1765 338.898C70.317 339.157 70.8796 339.297 71.4193 339.18C71.9354 339.086 72.24 338.805 72.0758 338.547C71.6537 337.821 70.2239 337.446 68.0191 337.469C65.5106 337.515 63.3296 337.797 61.5944 338.312C60.5393 337.445 59.4843 336.601 58.4293 335.756C58.1247 335.522 57.5148 335.475 57.046 335.639C56.5773 335.803 56.4369 336.108 56.7415 336.342C57.8201 337.186 58.8515 338.053 59.9065 338.921C58.1247 339.765 57.1163 340.984 57.1163 342.157C57.1163 342.555 57.2338 342.931 57.4445 343.283C58.3117 344.736 61.0791 345.815 64.1037 345.885C65.4167 345.932 66.6832 345.791 67.9252 345.627C70.2467 347.667 72.4972 349.73 74.7011 351.817C72.3094 352.966 69.965 353.646 67.6672 353.833C65.393 353.997 62.4852 353.505 61.618 352.309C61.4302 352.051 60.8439 351.934 60.3287 352.051C59.8126 352.169 59.5545 352.473 59.7424 352.731C60.9149 354.326 64.4319 355.005 67.4328 354.865C67.5733 354.841 67.6909 354.841 67.8313 354.841C70.4109 354.631 73.0362 353.903 75.6157 352.708C76.5539 353.576 77.4914 354.466 78.3823 355.334L78.9449 360.422C75.5447 361.196 71.7933 361.594 67.8779 361.594C61.3126 361.594 55.31 360.469 50.48 358.523C49.9876 358.335 49.4952 358.101 49.0265 357.89C46.7058 356.835 44.7354 355.569 43.1651 354.186C41.9223 353.013 40.9146 351.794 40.281 350.481V350.457C39.671 349.261 39.3665 348.019 39.3665 346.729C39.3672 338.524 52.1458 331.865 67.8787 331.865Z" fill="#FFCE00"/>
<path d="M266.731 316.507L284.199 321.243L283.59 323.495C278.924 322.111 273.696 323.26 270.015 326.941C264.669 332.287 264.669 340.939 270.015 346.285C271.68 347.95 273.672 349.099 275.783 349.732L275.337 351.584L264.036 353.131L264.27 349.919L266.731 316.507Z" fill="#7FB0E4"/>
<path d="M345.535 352.17C345.535 353.882 346.027 355.547 346.966 357.117C346.966 357.117 346.966 357.117 346.966 357.141C346.027 358.688 345.535 360.329 345.535 362.041V352.17Z" fill="#9B9894"/>
<path d="M170.2 243.259C169.614 258.687 168.652 292.614 167.714 327.035C167.362 340.422 167.011 353.928 166.706 366.425L131.137 371.279L132.356 343.002L136.764 241.243L162.509 242.79L169.871 243.235L170.2 243.259Z" fill="#DC5057"/>
<path d="M189.427 472.241C187.739 473.648 185.98 475.265 184.949 476.649C184.058 475.992 185.699 474.07 188.654 471.561L189.427 472.241Z" fill="#5578B7"/>
<path d="M346.966 367.012C348.044 365.206 349.686 363.541 351.772 362.065C357.587 366.144 366.919 368.794 377.446 368.794C381.877 368.794 386.097 368.325 389.943 367.481C393.506 369.451 397 371.514 400.329 373.624C394.538 376.743 386.426 378.665 377.445 378.665C363.121 378.665 350.999 373.765 346.966 367.012Z" fill="#9B9894"/>
<path d="M125.979 477.798C128.277 478.103 130.669 478.267 133.131 478.267C149.332 478.267 162.721 471.444 165.019 462.558C165.371 462.862 165.745 463.168 166.074 463.496C169.145 466.473 170.787 471.304 168.958 475.196C167.855 477.54 165.723 479.205 163.541 480.612C155.617 485.794 146.331 488.889 136.906 489.499C128.676 490.015 119.93 488.49 112.92 483.989C107.972 480.824 99.1801 472.453 102.627 465.864C106.261 471.819 115.077 476.391 125.979 477.798Z" fill="#DBCB56"/>
<path d="M117.047 191.818C103.049 191.818 91.7012 180.47 91.7012 166.448C91.7012 152.473 103.049 141.102 117.047 141.102C131.044 141.102 142.393 152.473 142.393 166.448C142.392 180.469 131.044 191.818 117.047 191.818ZM122.626 156.717C123.283 157.069 123.963 157.585 123.892 158.054C123.846 158.452 124.127 158.828 124.525 158.898C124.947 158.968 125.322 158.71 125.369 158.312C125.51 157.257 124.783 156.248 123.306 155.474C121.618 154.584 120 154.138 118.522 154.138C118.335 152.684 118.171 151.207 117.96 149.753C117.913 149.355 117.515 149.05 117.115 149.097C116.693 149.121 116.412 149.473 116.483 149.871C116.693 151.348 116.858 152.825 117.045 154.303C114.818 154.842 113.082 156.741 112.778 158.922C112.497 161.102 113.692 163.494 115.662 164.689C116.529 165.228 117.444 165.51 118.358 165.792C118.687 169.215 118.945 172.662 119.155 176.108C116.881 176.718 114.888 176.695 113.294 176.062C111.653 175.453 110.011 173.764 110.152 171.912C110.175 171.513 109.871 171.162 109.448 171.115C109.049 171.068 108.674 171.349 108.651 171.748C108.464 174.233 110.41 176.367 112.496 177.282C112.59 177.328 112.684 177.376 112.777 177.399C114.606 178.126 116.786 178.15 119.248 177.563C119.342 179.322 119.46 181.08 119.53 182.839C119.554 183.121 119.741 183.378 119.999 183.472C120.093 183.519 120.21 183.542 120.327 183.542C120.726 183.542 121.054 183.238 121.03 182.839C120.96 180.94 120.842 179.041 120.726 177.165C123.656 176.11 125.556 174.257 125.884 172.053C126.353 168.911 123.61 166.098 120.819 165.066C120.467 164.925 120.093 164.831 119.741 164.714C119.436 161.666 119.108 158.618 118.709 155.593C120.165 155.616 121.595 156.178 122.626 156.717Z" fill="#FFD837"/>
<path d="M78.4996 347.293C78.992 348.161 78.5232 349.028 77.7728 349.755L77.4209 346.355C77.9133 346.613 78.2889 346.918 78.4996 347.293Z" fill="#FFCE00"/>
<path d="M139.321 64.8299C142.322 61.1488 144.619 55.9906 145.886 50.0116L148.558 37.2796L151.255 50.0116C152.52 55.9906 154.795 61.1488 157.82 64.8299C154.936 66.2606 152.662 70.0585 151.747 74.9824L148.558 92.3795L145.393 74.9824C144.925 72.5204 144.128 70.3402 143.096 68.6049C142.064 66.8461 140.751 65.5567 139.321 64.8299Z" fill="#F4F2ED"/>
<path d="M192.85 475.289L205.23 486.286C203.12 486.45 201.009 486.45 198.899 486.168C195.171 485.676 183.635 483.308 183.94 478.642C183.987 478.103 184.339 477.399 184.948 476.649C185.417 476.977 186.589 476.977 188.629 476.508C190.012 476.203 191.419 475.781 192.85 475.289Z" fill="#DBCB56"/>
<path d="M78.1249 352.873C77.7967 352.545 77.4684 352.24 77.1401 351.935C77.4211 351.771 77.7028 351.607 77.9608 351.443L78.1249 352.873Z" fill="#FFCE00"/>
<path d="M67.8786 413.67C81.0319 413.67 92.0989 409.028 95.3579 402.721C95.5457 402.369 95.7098 401.994 95.8503 401.62C99.9772 406.778 101.079 413.155 96.8114 418.243C93.7395 421.901 88.1125 424.55 81.8992 425.723C75.6622 426.896 68.9328 426.661 62.7195 425.465C58.3353 424.598 54.1145 423.237 50.9494 421.104C47.3385 418.665 45.3927 415.406 43.7277 412.241C42.0398 409.028 39.39 404.995 39.9061 401.666C42.4383 408.512 54.0214 413.67 67.8786 413.67Z" fill="#DBCB56"/>
<path d="M404.411 353.178C406.263 351.654 407.646 350.013 408.467 348.231C409.053 349.497 409.381 350.81 409.381 352.17C409.381 353.882 408.889 355.547 407.928 357.117C407.106 355.71 405.887 354.374 404.411 353.178Z" fill="#B7B3AC"/>
<path d="M299.721 448.372C300.471 444.339 300.752 439.228 297.235 437.095C295.5 436.04 293.343 436.086 291.327 435.829C289.311 435.571 287.083 434.68 286.45 432.758C286.028 431.421 286.496 429.991 286.966 428.678C288.349 424.739 289.732 420.8 291.116 416.861L311.022 413.977C309.662 417.4 308.372 420.847 307.13 424.317C306.568 425.888 306.029 427.552 306.404 429.171C307.154 432.336 310.929 433.602 314.141 434.188C317.353 434.775 321.128 435.619 322.394 438.62C323.074 440.261 322.792 442.137 322.488 443.872C321.62 448.772 320.635 453.65 319.487 458.479L297.118 461.691C298.032 457.258 298.9 452.827 299.721 448.372Z" fill="#5C80CB"/>
<path d="M128.793 451.233C130.435 451.279 132.029 451.115 133.577 450.928C135.5 452.616 137.398 454.305 139.251 456.04C134.726 455.922 130.177 456.228 125.699 456.931C121.221 457.658 111.96 458.947 106.426 462.253C104.175 460.354 102.511 458.197 101.62 455.876C101.128 454.61 100.87 453.297 100.87 451.937C100.87 449.592 101.644 447.341 103.05 445.278C106.004 440.893 111.819 437.33 119.181 435.29L119.978 438.408C119.392 438.62 119.204 439.018 119.58 439.299C120.916 440.378 122.23 441.457 123.565 442.512C123.542 442.535 123.542 442.535 123.542 442.535C120.611 443.895 119.345 446.146 120.446 447.975C121.571 449.802 124.995 451.139 128.793 451.233Z" fill="#FFCE00"/>
<path d="M234.046 470.858C235.687 472.475 236.602 475.031 235.71 477.165C234.679 479.65 231.771 480.682 229.168 481.408C223.658 482.909 218.078 484.175 212.451 485.23C210.059 485.7 207.644 486.097 205.229 486.285L192.849 475.288C199.578 473.014 206.589 468.981 212.497 465.042C217.936 465.347 223.376 466.473 227.948 467.762C230.177 468.373 232.404 469.24 234.046 470.858Z" fill="#DBCB56"/>
<path d="M345.535 352.17C345.535 351.115 345.723 350.06 346.121 349.052L346.473 348.77C346.567 348.794 346.661 348.84 346.778 348.888C347.598 350.411 348.865 351.866 350.482 353.178C348.982 354.374 347.81 355.71 346.966 357.117C346.027 355.546 345.535 353.882 345.535 352.17Z" fill="#B7B3AC"/>
<path d="M400.331 373.624C403.777 371.772 406.427 369.521 407.927 367.012C408.888 368.56 409.381 370.225 409.381 371.936C409.381 372.639 409.287 373.296 409.146 373.952C408.795 375.406 408.115 376.79 407.107 378.103C404.903 376.578 402.628 375.078 400.331 373.624Z" fill="#898684"/>
<path d="M319.486 458.477C320.635 453.647 321.619 448.771 322.487 443.87C322.791 442.135 323.073 440.26 322.393 438.618C321.127 435.617 317.352 434.773 314.14 434.187C310.927 433.6 307.152 432.335 306.403 429.169C306.028 427.551 306.567 425.886 307.129 424.315C308.372 420.845 309.661 417.398 311.021 413.975L327.012 411.677C326.144 415.428 325.417 419.251 324.878 423.072C324.738 424.174 324.597 425.347 324.972 426.402C325.629 428.254 327.645 429.238 329.544 429.684C331.467 430.129 333.483 430.223 335.219 431.161C337.563 432.404 338.946 435.007 339.346 437.633C339.768 440.259 339.345 442.931 338.876 445.534C338.243 449.051 337.493 452.545 336.648 455.991L319.486 458.477Z" fill="#CE684B"/>
<path d="M133.248 461.151C130.388 461.362 126.777 460.776 125.675 459.252C125.44 458.947 124.713 458.806 124.081 458.947C123.424 459.087 123.096 459.463 123.33 459.768C124.807 461.807 129.191 462.628 132.966 462.44C133.131 462.44 133.271 462.417 133.435 462.417C136.67 462.182 139.953 461.268 143.189 459.744C144.572 461.081 145.979 462.394 147.316 463.73C147.55 463.941 147.996 464.058 148.465 464.034C148.653 464.034 148.817 464.011 149.004 463.94C149.122 463.917 149.215 463.87 149.309 463.823L150.598 467.387C145.58 469.286 139.578 470.364 133.13 470.364C128.276 470.364 123.657 469.754 119.531 468.629C114.208 467.222 109.683 465.018 106.424 462.252C111.957 458.945 121.219 457.656 125.697 456.929C130.175 456.226 134.724 455.921 139.248 456.038C140.187 456.906 141.124 457.774 142.039 458.641C139.063 460.096 136.109 460.939 133.248 461.151Z" fill="#FFCE00"/>
<path d="M162.228 223.096L162.158 216.46L184.667 219.273L169.427 226.097C167.504 225.417 164.948 224.432 162.228 223.096Z" fill="#DC5057"/>
<path d="M263.261 147.081L249.99 150.598C251.443 148.488 253.741 146.612 256.414 144.971L263.94 145.51L277.961 146.541C270.763 153.997 263.261 163.493 263.261 163.493V147.081Z" fill="#7286D5"/>
<path d="M293.788 265.44L290.295 292.756C286.895 289.731 284.762 285.276 284.762 280.352C284.762 273.881 288.419 268.254 293.788 265.44Z" fill="#7FB0E4"/>
<path d="M215.171 444.972C211.936 445.324 199.696 446.074 186.285 439.392C174.351 433.436 205.394 437.703 220.799 440.048C220.143 442.205 219.768 444.456 219.768 446.778C219.768 447.833 219.838 448.888 220.002 449.966C220.049 450.317 220.12 450.669 220.166 451.021L216.368 452.288C216.368 452.288 216.25 452.358 216.016 452.522C213.999 453.695 203.261 459.322 187.458 455.805C171.256 452.194 209.122 445.934 215.171 444.972Z" fill="#5578B7"/>
<path d="M345.535 362.041C345.535 360.329 346.027 358.688 346.966 357.141C348.044 358.9 349.686 360.564 351.772 362.065C349.685 363.542 348.043 365.207 346.966 367.011C346.027 365.44 345.535 363.776 345.535 362.041Z" fill="#9B9894"/>
<path d="M380.612 343.213C383.144 345.441 385.606 347.691 388.021 349.966C389.733 348.887 391.773 347.175 390.811 345.51C389.756 343.635 385.137 342.838 381.316 343.142C381.08 343.143 380.846 343.19 380.612 343.213ZM367.716 340.212C368.513 341.549 370.999 342.51 373.742 342.58C374.727 342.604 375.735 342.533 376.79 342.416C374.469 340.4 372.101 338.407 369.662 336.414C367.763 337.422 366.942 338.946 367.716 340.212ZM364.949 331.443C365.512 331.232 366.262 331.303 366.59 331.584C367.903 332.592 369.146 333.623 370.412 334.655C372.522 334.045 375.148 333.694 378.173 333.67C380.822 333.623 382.557 334.092 383.073 334.936C383.261 335.264 382.886 335.616 382.252 335.733C381.619 335.85 380.963 335.686 380.775 335.358C380.541 334.982 379.228 334.865 378.055 334.889C376.179 334.913 373.741 335.077 371.654 335.663C374.256 337.797 376.836 339.954 379.321 342.111C379.931 342.041 380.516 341.97 381.103 341.923C385.839 341.547 391.653 342.533 393.131 345.088C394.162 346.894 392.685 349.074 389.168 351.091C390.621 352.474 392.076 353.834 393.482 355.241C393.74 355.475 393.599 355.757 393.224 355.944C393.13 355.991 393.036 356.038 392.942 356.061C392.778 356.109 392.614 356.155 392.45 356.155C391.981 356.179 391.559 356.061 391.324 355.851C390.035 354.561 388.675 353.295 387.339 352.005C385.697 352.779 384.01 353.389 382.345 353.834L380.586 352.967C382.438 352.545 384.337 351.889 386.236 350.951C383.587 348.443 380.867 345.957 378.053 343.495C376.576 343.683 375.053 343.847 373.458 343.8C369.8 343.706 366.47 342.416 365.415 340.657C364.337 338.899 365.556 336.742 368.37 335.405C367.104 334.35 365.861 333.318 364.548 332.287C364.222 332.029 364.386 331.63 364.949 331.443Z" fill="#9B9894"/>
<path d="M286.215 324.596L282.979 349.872C280.611 350.482 278.126 350.434 275.781 349.731C273.671 349.098 271.678 347.949 270.013 346.284C264.667 340.938 264.667 332.287 270.013 326.941C273.694 323.259 278.922 322.111 283.588 323.494C284.48 323.776 285.371 324.127 286.215 324.596Z" fill="#7FB0E4"/>
<path d="M346.966 357.117C347.81 355.71 348.982 354.374 350.483 353.178C352.874 355.124 356.039 356.812 359.744 358.102C356.673 359.157 353.953 360.516 351.773 362.065C349.686 360.564 348.044 358.9 346.966 357.141C346.966 357.117 346.966 357.117 346.966 357.117Z" fill="#B7B3AC"/>
<path d="M132.967 462.44C129.191 462.628 124.807 461.807 123.33 459.768C123.096 459.463 123.424 459.087 124.081 458.947C124.713 458.806 125.44 458.947 125.675 459.252C126.777 460.776 130.388 461.362 133.248 461.151C136.109 460.94 139.063 460.096 142.041 458.642C141.126 457.775 140.189 456.907 139.251 456.04C140.283 456.064 141.314 456.11 142.323 456.18C142.839 456.649 143.354 457.142 143.87 457.611C144.409 457.259 144.973 456.884 145.488 456.462C146.308 456.532 147.105 456.649 147.902 456.743C147.199 457.423 146.261 458.103 145.089 458.783C146.589 460.213 148.113 461.643 149.567 463.073C149.825 463.331 149.684 463.636 149.309 463.824C149.215 463.871 149.122 463.917 149.005 463.941C148.818 464.011 148.653 464.035 148.466 464.035C147.997 464.059 147.551 463.941 147.317 463.73C145.98 462.394 144.573 461.081 143.19 459.745C139.954 461.268 136.672 462.183 133.436 462.417C133.271 462.417 133.131 462.44 132.967 462.44Z" fill="#CEA600"/>
<path d="M136.93 450.53C140.892 450.225 145.675 451.069 146.801 452.992C147.481 454.211 146.661 455.43 145.488 456.462C144.433 456.345 143.378 456.251 142.323 456.18C140.33 454.305 138.29 452.476 136.204 450.624C136.461 450.6 136.694 450.553 136.93 450.53Z" fill="#FFCE00"/>
<path d="M236.508 468.56C238.994 462.206 241.479 455.875 243.965 449.544C244.527 448.091 245.114 446.543 244.809 444.996C244.34 442.792 242.136 441.338 239.932 440.776C237.751 440.213 235.431 440.283 233.227 439.767C232.758 439.65 232.265 439.509 231.984 439.134C231.491 438.454 231.89 437.517 232.288 436.79C234.61 432.663 236.908 428.513 239.206 424.363L251.89 422.534C250.718 425.981 249.64 429.474 248.678 432.991C248.49 433.695 248.303 434.469 248.49 435.172C249.123 437.352 252.241 437.024 254.399 437.704C256.837 438.501 258.338 441.104 258.596 443.683C258.854 446.239 258.103 448.794 257.329 451.256C255.594 456.931 253.765 462.604 251.889 468.231L245.63 469.122C242.487 469.568 239.392 469.357 236.508 468.56Z" fill="#CE684B"/>
<path d="M362.253 408.512C365.207 409.357 367.951 410.763 370.319 412.663C372.804 414.632 374.867 417.118 376.322 420.001C377.447 422.158 378.244 424.55 378.596 427.083L378.807 429.427C378.831 429.732 378.831 430.013 378.831 430.318C378.831 434.046 377.893 437.61 376.252 440.775C373.931 445.229 370.156 448.84 365.49 450.974C366.404 447.199 367.178 443.424 367.835 439.602C367.881 439.438 367.905 439.274 367.929 439.11C368.445 436.015 368.89 432.826 368.28 429.732C367.67 426.637 365.818 423.635 362.91 422.416C361.949 422.017 360.894 421.806 360.073 421.15C359.065 420.305 358.784 419.039 358.878 417.679C358.948 416.53 359.324 415.287 359.745 414.209C360.495 412.287 361.338 410.365 362.253 408.512Z" fill="#5C80CB"/>
<path d="M303.518 137.515C303.518 137.515 303.214 137.679 302.651 137.889C302.44 137.843 302.347 137.819 302.347 137.819C302.347 137.819 304.668 135.357 308.466 132.121C307.645 134.302 306.168 136.412 303.518 137.515Z" fill="#5A68BD"/>
<path d="M226.707 153.552C225.323 150.387 224.128 146.94 223.236 143.283C222.978 142.392 222.767 141.478 222.58 140.539L218.336 120.516L214.116 140.539C212.123 149.941 208.535 158.054 203.799 163.845C206.073 164.97 208.113 167.01 209.755 169.754C211.396 172.52 212.639 175.944 213.342 179.836L215.592 192.192C216.008 192.128 216.432 192.095 216.863 192.095C216.432 192.095 216.008 192.129 215.592 192.192L218.335 207.175L220.915 193.083L221.548 189.66V189.614L223.353 179.836C224.76 172.075 228.347 166.073 232.895 163.845C230.529 160.938 228.442 157.468 226.707 153.552Z" fill="#F4F2ED"/>
<path d="M379.557 429.403L378.806 429.427L378.595 427.083C378.244 424.55 377.446 422.159 376.321 420.001L377.376 419.462C377.376 419.462 377.399 419.438 377.47 419.438C377.493 419.414 377.493 419.414 377.517 419.414C379.275 418.711 396.955 411.841 405.114 415.545C413.719 419.461 398.877 425.323 382.839 428.441C380.542 428.888 379.557 429.193 379.557 429.403Z" fill="#5578B7"/>
<path d="M366.59 331.584C366.262 331.302 365.512 331.232 364.949 331.443L364.41 329.099C368.396 328.161 372.805 327.645 377.447 327.645C384.176 327.645 390.389 328.724 395.524 330.576C399.487 332.921 403.261 335.36 406.919 337.868C408.513 339.861 409.381 341.995 409.381 344.269C409.381 345.629 409.053 346.965 408.467 348.232C407.646 350.014 406.263 351.655 404.411 353.179C402.019 355.125 398.854 356.813 395.126 358.103C394.774 358.22 394.422 358.337 394.047 358.454L393.226 355.945C393.601 355.758 393.742 355.477 393.484 355.242C392.077 353.835 390.624 352.476 389.17 351.092C392.687 349.076 394.164 346.895 393.133 345.09C391.656 342.534 385.841 341.549 381.105 341.925C380.519 341.971 379.932 342.042 379.323 342.113C376.838 339.955 374.259 337.799 371.656 335.665C373.744 335.079 376.182 334.914 378.057 334.891C379.23 334.868 380.542 334.985 380.777 335.36C380.965 335.688 381.622 335.852 382.255 335.734C382.888 335.617 383.263 335.266 383.075 334.937C382.559 334.093 380.825 333.624 378.175 333.672C375.15 333.695 372.524 334.046 370.414 334.656C369.146 333.624 367.903 332.592 366.59 331.584Z" fill="#CBC6BD"/>
<path d="M346.239 348.7C346.309 348.724 346.379 348.746 346.473 348.77L346.121 349.052C346.145 348.934 346.192 348.817 346.239 348.7Z" fill="#B7B3AC"/>
<path d="M293.788 265.44C296.109 264.221 298.759 263.541 301.573 263.541C310.834 263.541 318.361 271.067 318.361 280.353C318.361 289.614 310.834 297.141 301.573 297.141C297.235 297.141 293.272 295.499 290.295 292.756L293.788 265.44Z" fill="#E5E8F0"/>
<path d="M253.272 44.454C255.523 45.2984 257.68 47.5489 257.352 49.8467C257.046 51.8865 255.077 53.0591 253.577 53.6683C253.365 50.5498 253.131 47.4313 252.85 44.3128C252.99 44.3602 253.132 44.3838 253.272 44.454Z" fill="#FFCE00"/>
<path d="M213.976 222.955L220.564 219.907L220.447 223.775L213.976 222.955Z" fill="#6295D8"/>
<path d="M67.8784 398.806C74.9826 398.806 81.4776 397.446 86.4481 395.195C87.0581 395.383 87.6207 395.57 88.1833 395.805C89.9888 396.531 91.5125 397.469 92.8256 398.548C87.9719 403.144 78.6164 406.239 67.8777 406.239C56.7168 406.239 47.0567 402.91 42.3679 398.032C43.0008 397.634 43.7512 397.259 44.6658 396.931C46.3071 396.344 48.0423 395.829 49.8477 395.43C54.748 397.539 61.0323 398.806 67.8784 398.806Z" fill="#C9A200"/>
<path d="M40.2815 365.324C40.2815 365.324 40.2815 365.324 40.2815 365.347C39.9059 366.028 39.6715 366.754 39.5074 367.481C39.46 367.528 39.4135 367.575 39.3669 367.621V361.783C39.3906 363.002 39.6952 364.175 40.2815 365.324Z" fill="#D6AD00"/>
<path d="M291.327 435.828C293.343 436.086 295.501 436.04 297.235 437.094C300.752 439.227 300.471 444.339 299.721 448.371C298.9 452.827 298.033 457.257 297.118 461.689L276.157 464.714C278.033 458.102 279.393 451.349 280.19 444.526C280.448 442.416 280.588 440.095 279.416 438.336C277.188 434.983 272.17 435.804 268.279 434.819C267.552 434.631 266.754 434.303 266.427 433.623C266.075 432.849 266.45 431.935 266.849 431.161C268.748 427.292 270.647 423.401 272.546 419.532L291.116 416.859C289.732 420.798 288.349 424.737 286.966 428.677C286.497 429.99 286.028 431.42 286.45 432.756C287.083 434.679 289.31 435.57 291.327 435.828Z" fill="#CE684B"/>
<path d="M264.035 353.131L262.815 369.685L241.338 386.637L242.159 356.132L264.035 353.131Z" fill="#BF495A"/>
<path d="M407.412 366.191C406.357 364.714 404.903 363.307 403.144 362.065C405.231 360.564 406.872 358.9 407.927 357.141C408.888 358.688 409.38 360.329 409.38 362.041C409.38 363.612 408.982 365.136 408.161 366.566L407.412 366.191Z" fill="#9B9894"/>
<path d="M377.469 354.609C373.836 354.796 369.615 353.999 368.184 352.053C367.95 351.748 368.278 351.372 368.911 351.232C369.521 351.092 370.224 351.232 370.435 351.537C371.514 353.014 374.984 353.576 377.775 353.366C378.712 353.296 379.65 353.154 380.588 352.967L382.347 353.834C380.87 354.233 379.416 354.467 377.939 354.585C377.775 354.609 377.633 354.609 377.469 354.609Z" fill="#9B9894"/>
<path d="M150.505 215.007L146.8 214.538L149.473 213.811C149.802 214.209 150.153 214.607 150.505 215.007Z" fill="#6295D8"/>
<path d="M346.239 348.7C346.309 348.536 346.357 348.372 346.45 348.231C346.498 348.349 346.568 348.489 346.638 348.63L346.473 348.77C346.379 348.746 346.309 348.724 346.239 348.7Z" fill="#856FC5"/>
<path d="M282.885 350.552L275.335 351.584L275.781 349.732C278.126 350.436 280.611 350.482 282.979 349.872L282.885 350.552Z" fill="#7FB0E4"/>
<path d="M86.448 395.195C88.8626 394.116 90.9261 392.827 92.5437 391.373C93.5759 390.459 94.4194 389.474 95.0523 388.443L96.2714 389.521V392.101C96.1775 393.108 95.9431 394.117 95.4744 395.078V395.102C94.8653 396.321 93.9736 397.47 92.8247 398.548C91.5116 397.47 89.9871 396.532 88.1824 395.805C87.6206 395.57 87.058 395.383 86.448 395.195Z" fill="#C9A200"/>
<path d="M67.8786 406.238C78.6174 406.238 87.9728 403.143 92.8265 398.548C93.9518 399.438 94.9137 400.447 95.7335 401.455C95.7801 401.501 95.8274 401.572 95.8511 401.619C95.7106 401.994 95.5465 402.369 95.3587 402.72C92.0998 409.027 81.0328 413.67 67.8794 413.67C54.0222 413.67 42.4399 408.511 39.9077 401.665C40.0955 400.306 40.8223 399.063 42.3697 398.031C47.0577 402.909 56.7177 406.238 67.8786 406.238Z" fill="#BF9A00"/>
<path d="M273.038 230.34L266.731 316.507L256.883 313.835L255.851 313.553L243.096 321.853L245.3 240.493L245.089 240.47L272.1 230.223L273.038 230.34Z" fill="#BF495A"/>
<path d="M43.1885 376.508C41.9228 375.359 40.9143 374.116 40.2815 372.78V372.756C39.6952 371.631 39.3906 370.458 39.3669 369.239C39.3669 369.169 39.3669 369.122 39.3669 369.051C39.3669 368.512 39.4143 367.996 39.5074 367.48C39.9295 367.106 40.3983 366.707 40.8441 366.331C41.4304 367.27 42.2511 368.183 43.1885 369.051C44.7596 370.458 46.7292 371.724 49.0499 372.756C54.0906 375.078 60.6558 376.485 67.8776 376.485C72.403 376.485 76.717 375.922 80.5157 374.937L81.1722 380.893L83.4929 381.479C79.0148 383.026 73.645 383.917 67.8776 383.917C60.6321 383.917 54.044 382.51 49.0262 380.212C46.7063 379.134 44.7367 377.891 43.1885 376.508Z" fill="#D6AD00"/>
<path d="M345.535 349.497L346.121 349.051C345.723 350.059 345.535 351.114 345.535 352.169V349.497Z" fill="#B7B3AC"/>
<path d="M40.2815 387.645C40.9143 388.981 41.9228 390.223 43.1885 391.373C44.9237 392.92 47.1742 394.304 49.8476 395.429C48.0422 395.827 46.307 396.344 44.6657 396.93C43.7511 397.258 43.0007 397.633 42.3678 398.031C41.5006 397.094 40.7739 396.132 40.2815 395.101V395.077C39.6952 393.952 39.3906 392.756 39.3669 391.56C39.3669 391.49 39.3669 391.443 39.3669 391.373V383.941C39.3669 385.23 39.6723 386.473 40.2815 387.645Z" fill="#C9A200"/>
<path d="M346.121 349.052L345.535 349.498V348.466C345.769 348.514 346.004 348.607 346.238 348.701C346.191 348.817 346.145 348.934 346.121 349.052Z" fill="#B7B3AC"/>
<path d="M407.927 357.141C407.927 357.117 407.927 357.117 407.927 357.117C408.888 355.546 409.381 353.882 409.381 352.17V362.042C409.382 360.329 408.889 358.688 407.927 357.141Z" fill="#9B9894"/>
<path d="M95.4753 365.23C95.5929 365.018 95.686 364.785 95.7799 364.573C95.7097 364.831 95.5929 365.066 95.4753 365.3V365.23Z" fill="#D6AD00"/>
<path d="M247.223 37.2323C247.434 35.6612 248.63 34.3016 250.177 33.8321C250.528 36.646 250.857 39.4827 251.138 42.2966C250.506 42.1096 249.919 41.8745 249.38 41.5462C247.879 40.6324 247.012 38.8507 247.223 37.2323Z" fill="#FFCE00"/>
<path d="M228.489 246.753L219.72 246.237L170.201 243.259C169.615 258.687 168.653 292.614 167.715 327.035C167.363 340.423 167.012 353.928 166.707 366.425C166.356 379.93 166.027 392.287 165.769 402.158L208.185 412.827L210.365 411.092L216.109 359.673L218.407 339.04L218.548 337.844L228.725 246.659L228.489 246.753Z" fill="#9DC6EA"/>
<path d="M245.089 240.47L228.724 246.659L228.489 246.753L219.72 246.237L220.025 236.835L245.089 240.47Z" fill="#6295D8"/>
<path d="M284.198 321.244L266.73 316.507L273.037 230.34L272.099 230.223L299.626 219.788L293.787 265.44C288.417 268.254 284.76 273.881 284.76 280.352C284.76 285.276 286.894 289.731 290.293 292.756L286.213 324.596C285.369 324.128 284.478 323.776 283.587 323.494L284.198 321.244Z" fill="#7FB0E4"/>
<path d="M86.7063 387.645C88.3941 386.871 89.895 386.003 91.208 385.019L95.0533 388.442C94.4204 389.474 93.5761 390.458 92.5447 391.372C90.9271 392.826 88.8636 394.115 86.449 395.194C82.6267 393.998 78.1722 393.693 73.8812 393.599C66.0731 393.411 57.4215 393.669 49.8486 395.428C47.176 394.303 44.9247 392.92 43.1895 391.372C41.9238 390.223 40.9153 388.981 40.2825 387.644C39.6725 386.471 39.3679 385.229 39.3679 383.939V376.694C39.3916 377.889 39.6962 379.085 40.2825 380.211C40.2825 380.211 40.2825 380.211 40.2825 380.234C40.9153 381.524 41.9238 382.767 43.1666 383.915C44.7377 385.346 46.7309 386.612 49.0516 387.643C54.0923 389.965 60.6576 391.372 67.8793 391.372C75.1003 391.373 81.6884 389.966 86.7063 387.645Z" fill="#BF9A00"/>
<path d="M165.299 450.834L148.16 435.594C157.843 438.525 164.62 444.199 165.299 450.834Z" fill="#FFCE00"/>
<path d="M322.989 232.827C323.507 229.631 321.337 226.621 318.142 226.102C314.947 225.583 311.936 227.753 311.417 230.949C310.899 234.144 313.069 237.155 316.264 237.674C319.459 238.192 322.47 236.022 322.989 232.827Z" fill="#E5E8F0"/>
<path d="M281.244 159.601C284.058 159.601 286.332 161.876 286.332 164.666C286.332 167.48 284.058 169.754 281.244 169.754C278.43 169.754 276.156 167.48 276.156 164.666C276.157 161.876 278.431 159.601 281.244 159.601Z" fill="#E5E8F0"/>
<path d="M346.121 244.784C344.597 244.784 343.377 241.103 343.377 236.577C343.377 232.052 344.597 228.371 346.121 228.371C347.622 228.371 348.841 232.052 348.841 236.577C348.841 241.103 347.622 244.784 346.121 244.784Z" fill="#DFE3E5"/>
<path d="M345.723 300.282C342.276 300.282 339.462 293.459 339.462 285.042C339.462 276.624 342.275 269.801 345.723 269.801C349.17 269.801 351.983 276.624 351.983 285.042C351.983 293.459 349.17 300.282 345.723 300.282Z" fill="#DFE3E5"/>
<path d="M259.744 171.325C259.744 178.218 254.163 183.822 247.246 183.822C240.33 183.822 234.749 178.218 234.749 171.325C234.749 164.409 240.33 158.804 247.246 158.804C254.163 158.804 259.744 164.409 259.744 171.325Z" fill="#E5E8F0"/>
<path d="M334.609 334.937C335.336 338.618 336.743 341.525 338.455 342.979L326.473 344.62L327.247 332.92L334.609 334.937Z" fill="#856FC5"/>
<path d="M358.22 199.461C359.533 199.461 360.565 202.439 360.565 206.096C360.565 209.754 359.533 212.732 358.22 212.732C356.931 212.732 355.876 209.754 355.876 206.096C355.875 202.439 356.93 199.461 358.22 199.461Z" fill="#DFE3E5"/>
<path d="M308.969 206.881C316.746 203.66 320.439 194.744 317.218 186.968C313.996 179.191 305.081 175.498 297.304 178.72C289.528 181.941 285.835 190.856 289.056 198.633C292.277 206.409 301.193 210.102 308.969 206.881Z" fill="#E5E8F0"/>
<path d="M309.381 308.09C313.484 308.09 316.813 311.419 316.813 315.523C316.813 319.626 313.484 322.932 309.381 322.932C305.277 322.932 301.948 319.626 301.948 315.523C301.948 311.419 305.277 308.09 309.381 308.09Z" fill="#E5E8F0"/>
<path d="M351.186 186.167C348.607 186.167 346.496 180.563 346.496 173.67C346.496 166.754 348.606 161.15 351.186 161.15C353.788 161.15 355.876 166.754 355.876 173.67C355.876 180.563 353.788 186.167 351.186 186.167Z" fill="#DFE3E5"/>
<path d="M341.034 313.553C344.926 313.553 348.068 320.376 348.068 328.794C348.068 332.31 347.505 335.569 346.568 338.172L334.61 334.937C334.211 333.061 334 330.975 334 328.794C334 320.376 337.142 313.553 341.034 313.553Z" fill="#DFE3E5"/>
<path d="M344.386 342.158C343.425 343.354 342.253 344.034 341.034 344.034C340.119 344.034 339.252 343.659 338.455 342.979L344.386 342.158Z" fill="#DFE3E5"/>
<path d="M433.578 407.621L434 445.253H433.648C431.889 455.804 429.545 487.458 379.135 524.386C337.024 555.242 271.607 563.988 251.209 566.028L250.764 526.731C250.764 526.731 340.448 517.353 393.203 473.976C421.292 450.881 431.28 426.777 433.578 407.621Z" fill="#CEBC52"/>
<path d="M16.724 480.953L14.4136 480.552C15.6304 473.53 16.2245 466.421 16.1788 459.424L18.5232 459.408C18.5705 466.544 17.9645 473.793 16.724 480.953Z" fill="#D3BA42"/>
<path d="M45.0279 505.757L42.7087 505.409C43.5854 499.581 43.7724 493.655 43.2643 487.794L45.6 487.593C46.1239 493.635 45.9314 499.747 45.0279 505.757Z" fill="#D3BA42"/>
<path d="M78.9778 525.373L76.6626 524.995C77.6829 518.761 77.6513 512.463 76.571 506.276L78.8815 505.873C80.0068 512.319 80.0391 518.88 78.9778 525.373Z" fill="#D3BA42"/>
<path d="M122.321 539.667L119.978 539.587C120.184 533.556 120.097 527.362 119.72 521.175C119.711 521.092 119.68 520.764 119.629 520.67C119.846 520.846 120.175 520.943 120.39 520.73C120.609 520.511 120.691 520.057 120.441 519.703L118.525 521.052C118.093 520.44 118.179 519.625 118.732 519.072C119.362 518.442 120.348 518.328 121.025 518.808C121.904 519.393 122.005 520.434 122.057 520.992C122.443 527.293 122.531 533.563 122.321 539.667Z" fill="#D3BA42"/>
<path d="M158.028 549.523L155.69 549.333C156.246 542.467 156.037 535.549 155.065 528.773L157.386 528.441C158.382 535.388 158.598 542.481 158.028 549.523Z" fill="#D3BA42"/>
<path d="M207.122 558.776L204.793 558.509C205.537 552.062 205.646 545.537 205.116 539.115L207.454 538.922C207.995 545.498 207.884 552.178 207.122 558.776Z" fill="#D3BA42"/>
<path d="M232.826 533.748L231.343 554.5L233.68 554.667L235.164 533.915L232.826 533.748Z" fill="#D3BA42"/>
<path d="M275.85 550.08L273.509 549.95C273.785 545.011 273.598 540.036 272.954 535.161L275.278 534.854C275.942 539.873 276.134 544.995 275.85 550.08Z" fill="#BCA43C"/>
<path d="M321.917 538.587L319.588 538.324C320.187 533.035 320.117 527.692 319.38 522.44L321.702 522.115C322.466 527.56 322.54 533.102 321.917 538.587Z" fill="#BCA43C"/>
<path d="M368.168 514.998L365.857 514.597C366.731 509.564 366.731 504.462 365.857 499.429L368.168 499.028C369.087 504.327 369.087 509.699 368.168 514.998Z" fill="#BCA43C"/>
<path d="M403.38 490.222L401.081 489.759C401.773 486.324 401.573 482.741 400.504 479.399L402.736 478.684C403.928 482.406 404.15 486.395 403.38 490.222Z" fill="#BCA43C"/>
<path d="M422.994 467.066L420.667 466.773C421.424 460.767 421.808 454.6 421.808 448.443H424.152C424.153 454.697 423.764 460.962 422.994 467.066Z" fill="#BCA43C"/>
</svg>
